<?xml version="1.0" encoding="utf-8"?>
<!-- Generator: Adobe Illustrator 16.0.3, SVG Export Plug-In . SVG Version: 6.00 Build 0)  -->
<!DOCTYPE svg PUBLIC "-//W3C//DTD SVG 1.1//EN" "http://www.w3.org/Graphics/SVG/1.1/DTD/svg11.dtd">
<svg version="1.1" id="Layer_1" xmlns="http://www.w3.org/2000/svg" xmlns:xlink="http://www.w3.org/1999/xlink" x="0px" y="0px"
	 width="41.5px" height="41px" viewBox="0 0 41.5 41" enable-background="new 0 0 41.5 41" xml:space="preserve">
<g>
	<path d="M36.593,4.57c0,0-7.933,8.328-15.946,16.574c-1.996,2.069-3.991,4.139-5.862,6.078c-0.967,0.938-1.878,1.87-2.783,2.711
		c-0.9,0.846-1.751,1.647-2.535,2.386c-0.783,0.742-1.532,1.391-2.18,1.981c-0.649,0.59-1.222,1.097-1.703,1.505
		c-0.949,0.828-1.51,1.284-1.51,1.284l-0.089-0.089c0,0,0.456-0.561,1.283-1.511c0.408-0.48,0.915-1.054,1.506-1.703
		c0.591-0.646,1.239-1.396,1.981-2.179c0.738-0.784,1.539-1.636,2.386-2.536c0.841-0.905,1.772-1.815,2.711-2.782
		c1.939-1.872,4.009-3.867,6.078-5.863c8.246-8.014,16.574-15.945,16.574-15.945L36.593,4.57z"/>
</g>
</svg>
