<?xml version="1.0" encoding="utf-8"?>
<!-- Generator: Adobe Illustrator 16.0.3, SVG Export Plug-In . SVG Version: 6.00 Build 0)  -->
<!DOCTYPE svg PUBLIC "-//W3C//DTD SVG 1.1//EN" "http://www.w3.org/Graphics/SVG/1.1/DTD/svg11.dtd">
<svg version="1.1" id="Layer_1" xmlns="http://www.w3.org/2000/svg" xmlns:xlink="http://www.w3.org/1999/xlink" x="0px" y="0px"
	 width="400px" height="455.322px" viewBox="0 0 400 455.322" enable-background="new 0 0 400 455.322" xml:space="preserve">
<g>
	<path fill="none" stroke="#FF559E" stroke-miterlimit="10" d="M245.371,323.241c0,0.986-0.804,1.786-1.791,1.786
		s-1.785-0.8-1.785-1.786c0-0.989,0.798-1.789,1.785-1.789S245.371,322.251,245.371,323.241z"/>
	<path fill="#FF559E" d="M251.704,98.241c0,0.986-0.8,1.787-1.788,1.787c-0.986,0-1.787-0.801-1.787-1.787
		c0-0.99,0.801-1.789,1.787-1.789C250.904,96.452,251.704,97.251,251.704,98.241z"/>
	<path fill="none" stroke="#0063EA" stroke-miterlimit="10" d="M172.009,137.542c-0.6,1.008-1.904,1.341-2.916,0.74
		c-1.007-0.603-1.339-1.907-0.737-2.914c0.6-1.011,1.907-1.342,2.911-0.742C172.277,135.227,172.608,136.534,172.009,137.542z"/>
	<g>
		<g>
			<g>
				<g>
					<g>
						<polygon fill="#FF6BAA" points="95.85,102.703 95.815,102.727 95.928,102.771 						"/>
						<path fill="#FF6BAA" d="M96.138,103.027c0.017-0.012,0.049-0.011,0.066-0.023l-0.329-0.171
							C95.723,102.944,96.239,102.957,96.138,103.027z"/>
						<path fill="#FF6BAA" d="M96.118,103.091c-0.055,0.088,0.088,0.101,0.138,0.111C96.144,103.191,96.264,103.054,96.118,103.091z
							"/>
						<path fill="#FF6BAA" d="M99.989,108.538c-0.007-0.003-0.018-0.004-0.026-0.003C99.972,108.544,99.981,108.544,99.989,108.538z
							"/>
						<path fill="#FF6BAA" d="M101.778,108.73l0.043-0.103c-0.349,0.097-0.631-0.203-0.973-0.219l0.036-0.029
							c-0.377-0.177-0.732-0.362-1.123-0.5c-0.369-0.171-0.714-0.398-1.084-0.626c0.018,0,0.044-0.022,0.063-0.023
							c-0.058,0.003-0.142,0.026-0.172-0.01c0.007-0.025,0.045-0.029,0.065-0.028c-0.001-0.253-0.438-0.314-0.413-0.494
							c-0.048-0.025-0.121,0.008-0.146,0.068c-0.247-0.238-0.502-0.488-0.695-0.792c-0.198-0.297-0.47-0.562-0.653-0.873
							c0.011-0.042,0.054-0.068,0.115-0.085c-0.242-0.222-0.397-0.508-0.508-0.806c-0.114-0.298-0.088-0.634-0.129-0.943
							c-0.082-0.012-0.071,0.077-0.162,0.028c-0.061,0.223,0.252,0.333,0.145,0.545l-0.077-0.006
							c-0.023,0.146,0.19-0.018,0.12,0.144c-0.051,0.07-0.096,0.01-0.097,0.037c0.103,0.269,0.164,0.575,0.424,0.764
							c-0.129,0.124,0.103,0.289-0.003,0.453c0.086,0.043,0.096,0.121,0.207,0.098c0.227,0.44,0.469,0.896,0.805,1.274
							c0.375,0.346,0.673,0.764,1.094,1.053c0.288,0.027,0.474,0.193,0.661,0.394c0.181,0.207,0.418,0.367,0.685,0.462
							c-0.002,0.012-0.008,0.022-0.016,0.028c0.199,0.016,0.443,0.108,0.622,0.239l0.223-0.069c0.356,0.194,0.737,0.387,1.14,0.488
							c0.411,0.067,0.83,0.112,1.247,0.156l0.001-0.689c-0.483,0.062-0.97,0.095-1.458,0.142c-1.472,0.249-2.877,0.853-3.603,2.2
							c-0.021-0.023-0.042-0.026-0.026-0.063c-0.213,0.371-0.615,0.546-0.742,0.946l-0.025-0.019
							c-0.128,0.479-0.476,0.975-0.536,1.233c-0.061,0.155-0.118,0.3-0.17,0.486c-0.04,0.19-0.045,0.425-0.07,0.819
							c-0.03,0.164-0.061,0.331-0.096,0.521c-0.074-0.384-0.113-0.757-0.228-1.133c-0.177-0.36-0.269-0.764-0.572-1.165l0.057-0.027
							c-0.311-0.367-0.461-0.816-0.76-1.183c-0.134-0.193-0.269-0.39-0.416-0.579c-0.149-0.187-0.354-0.317-0.552-0.453
							c-0.175-0.176-0.365-0.346-0.592-0.459c-0.235-0.099-0.48-0.18-0.721-0.26c-0.466-0.201-0.98-0.202-1.41-0.458
							c-0.399-0.373-1.055-0.044-1.522-0.099l-0.774-0.09l0.775-0.121c0.145-0.022,0.281-0.016,0.414,0.042
							c0.296,0.087,0.601,0.125,0.901,0.124c0.291-0.041,0.573-0.141,0.846-0.251c0.136-0.056,0.269-0.118,0.399-0.184
							c0.124-0.082,0.238-0.182,0.353-0.275c0.228-0.192,0.446-0.387,0.655-0.584c0.958-0.515,1.423-1.5,2.173-2.205
							c0.083-0.494,0.7-0.795,0.843-1.358l-0.081-0.004c0.313-0.121-0.191-0.501,0.165-0.539l0.012,0.024
							c0.193-0.069-0.37-0.324-0.152-0.342l-0.083-0.032c-0.004-0.125,0.101,0.003,0.151-0.085
							c-0.004-0.038-0.156-0.039-0.093-0.104c0.359,0.035-0.026-0.307,0.377-0.271c-0.012,0.071,0.175-0.095,0.232,0.074
							c0.049-0.042,0.066-0.265-0.109-0.257c-0.182-0.033-0.33-0.125-0.485-0.011l0.128,0.036c-0.14,0.03-0.072,0.026-0.173,0.032
							c-0.045,0.158-0.241,0.156-0.339,0.254c0.004,0,0.008-0.001,0.014,0.001c0.145,0.097,0.033,0.189,0,0.244l-0.077,0.011
							c-0.158,0.006,0.268,0.231,0.015,0.133c0,0.16,0.007,0.336-0.041,0.503c-0.059,0.164-0.119,0.333-0.178,0.5
							c0.077,0.082-0.104,0.251,0.104,0.251c-0.242,0-0.366,0.226-0.413,0.31c-0.017-0.012-0.036-0.026-0.021-0.036
							c-0.352,0.025,0.119,0.315-0.28,0.295c0.199,0.15-0.229,0.226-0.034,0.469c-0.058-0.011-0.103-0.033-0.135-0.064
							c-0.141,0.286-0.483,0.456-0.65,0.651c0.008,0.321-0.414,0.342-0.381,0.668c-0.173,0.055-0.451,0.113-0.556,0.352
							l-0.004-0.043c-0.175,0.195-0.463,0.324-0.527,0.581c-0.206-0.217-0.273-0.116-0.41-0.147
							c-0.044,0.099-0.147,0.181-0.261,0.268c-0.125,0.062-0.261,0.125-0.367,0.221c-0.08-0.115-0.19,0.118-0.26-0.062
							c-0.407,0.466-1.083,0.482-1.677,0.446l-3.525-0.209l3.523,1.156c0.233,0.076,0.457,0.171,0.66,0.274l-0.013,0.012
							c0.111-0.094,0.264-0.312,0.397-0.434c0.008,0.018,0,0.049-0.021,0.046c0.158-0.024,0.254,0.184,0.398,0.203
							c-0.009,0.031-0.009,0.031-0.039,0.053c0.153-0.042,0.225,0.233,0.419,0.138l-0.007,0.051l0.12-0.037
							c-0.023,0.06-0.057,0.149-0.102,0.114c0.291,0.096,0.583,0.184,0.858,0.332c0.274,0.142,0.598,0.212,0.859,0.395l0.813,0.526
							c0.231,0.224,0.454,0.464,0.661,0.714l-0.079,0.002l0.253,0.123c-0.027,0.018-0.047,0.018-0.067,0.018
							c0.084,0.327,0.397,0.518,0.541,0.802c-0.028,0.013-0.107,0.002-0.115,0.056c0.136,0.069,0.134,0.136,0.145,0.27
							c0.011,0.165,0.042,0.332,0.218,0.262c-0.009,0.033-0.071,0.126-0.107,0.108c0.216,0.562,0.389,1.042,0.55,1.585
							c0.106,0.561,0.195,1.189,0.298,1.951c0.033-0.113,0.059-0.169,0.084-0.173c0.063-0.764,0.12-1.035,0.184-1.408
							c0.07-0.35,0.101-0.815,0.157-1.378l0.035,0.174c0.094-0.746,0.196-1.06,0.406-1.441c0.232-0.323,0.461-0.642,0.662-0.975
							c0.234-0.225,0.319-0.438,0.534-0.688l0.064,0.05c0.054-0.331,0.354-0.447,0.618-0.577c0.28-0.115,0.502-0.286,0.68-0.542
							l0.023,0.112c-0.01-0.188,0.333-0.107,0.159-0.347l0.133,0.03c0.18-0.541,0.696-0.185,1.069-0.536l-0.008,0.076
							c0.104-0.089,0.238-0.175,0.345-0.142c-0.011,0.014,0,0.032-0.023,0.059c0.436,0.115,0.806-0.194,1.237-0.24l-0.036,0.135
							c0.115-0.108,0.308-0.111,0.497-0.122l0.893-0.05l-0.893-0.158c-0.115-0.021-0.229-0.038-0.331-0.023l0.021-0.059l-0.14,0.07
							l0.007-0.123C102.454,108.706,102.106,108.821,101.778,108.73z"/>
						<path fill="#FF6BAA" d="M98.632,107.192v0.005C98.648,107.196,98.643,107.193,98.632,107.192z"/>
						<path fill="#FF6BAA" d="M95.88,103.019c0.01-0.014,0.02-0.024,0.032-0.036C95.887,102.983,95.888,103.007,95.88,103.019z"/>
					</g>
				</g>
			</g>
		</g>
	</g>
	<g>
		<g>
			<g>
				<g>
					<g>
						<polygon fill="#FF6BAA" points="243.533,184.118 243.499,184.144 243.612,184.193 						"/>
						<path fill="#FF6BAA" d="M243.826,184.47c0.017-0.013,0.048-0.012,0.065-0.025l-0.331-0.187
							C243.41,184.376,243.927,184.395,243.826,184.47z"/>
						<path fill="#FF6BAA" d="M243.807,184.538c-0.054,0.094,0.09,0.11,0.14,0.122C243.835,184.646,243.953,184.5,243.807,184.538z"
							/>
						<path fill="#FF6BAA" d="M247.98,190.418c-0.007-0.003-0.019-0.005-0.027-0.004
							C247.963,190.423,247.973,190.424,247.98,190.418z"/>
						<path fill="#FF6BAA" d="M249.903,190.662l0.044-0.103c-0.374,0.089-0.686-0.219-1.055-0.245l0.038-0.029
							c-0.411-0.19-0.796-0.394-1.216-0.547c-0.398-0.189-0.769-0.44-1.168-0.69c0.02,0,0.045-0.021,0.065-0.021
							c-0.061,0-0.148,0.021-0.182-0.017c0.007-0.026,0.047-0.028,0.067-0.027c-0.013-0.263-0.468-0.347-0.449-0.534
							c-0.051-0.028-0.125,0.003-0.148,0.065c-0.265-0.259-0.541-0.53-0.746-0.86c-0.212-0.322-0.503-0.611-0.695-0.949
							c0.01-0.045,0.053-0.071,0.114-0.087c-0.251-0.245-0.414-0.554-0.534-0.875c-0.123-0.321-0.098-0.683-0.145-1.016
							c-0.082-0.014-0.07,0.082-0.162,0.028c-0.058,0.239,0.257,0.362,0.152,0.588l-0.078-0.008
							c-0.021,0.157,0.19-0.016,0.122,0.156c-0.051,0.075-0.096,0.01-0.096,0.039c0.108,0.291,0.179,0.618,0.446,0.827
							c-0.127,0.128,0.11,0.312,0.009,0.482c0.088,0.048,0.099,0.132,0.211,0.111c0.248,0.473,0.508,0.965,0.869,1.374l0.572,0.589
							l0.282,0.296l0.322,0.253c0.303,0.038,0.505,0.217,0.709,0.432c0.197,0.22,0.457,0.388,0.742,0.494
							c-0.001,0.012-0.008,0.022-0.016,0.029c0.213,0.022,0.475,0.125,0.669,0.264l0.237-0.065c0.388,0.204,0.799,0.409,1.235,0.516
							c0.443,0.072,0.896,0.12,1.346,0.168l0.001-0.689c-0.521,0.067-1.048,0.102-1.574,0.156c-1.59,0.276-3.088,0.94-3.896,2.37
							c-0.021-0.023-0.042-0.025-0.024-0.064c-0.233,0.397-0.661,0.592-0.802,1.021l-0.024-0.019
							c-0.149,0.515-0.519,1.039-0.594,1.346c-0.07,0.177-0.136,0.345-0.196,0.552c-0.044,0.207-0.049,0.45-0.076,0.861
							c-0.033,0.177-0.066,0.359-0.104,0.565c-0.08-0.418-0.121-0.82-0.247-1.235c-0.195-0.401-0.295-0.851-0.621-1.284l0.057-0.027
							c-0.332-0.4-0.499-0.885-0.825-1.279c-0.146-0.208-0.295-0.418-0.454-0.622c-0.162-0.2-0.385-0.342-0.598-0.491
							c-0.19-0.188-0.396-0.373-0.64-0.496c-0.254-0.108-0.518-0.199-0.776-0.289c-0.501-0.223-1.058-0.23-1.526-0.5
							c-0.437-0.384-1.141-0.057-1.648-0.117l-0.778-0.092l0.778-0.119c0.157-0.024,0.306-0.019,0.449,0.038
							c0.32,0.085,0.649,0.119,0.973,0.116c0.314-0.048,0.619-0.155,0.915-0.272c0.147-0.06,0.292-0.125,0.434-0.195
							c0.134-0.087,0.259-0.192,0.385-0.292c0.249-0.204,0.489-0.41,0.719-0.619c1.028-0.568,1.563-1.615,2.353-2.398
							c0.107-0.528,0.738-0.873,0.896-1.478l-0.082-0.003c0.32-0.136-0.181-0.537,0.177-0.584l0.012,0.026
							c0.194-0.078-0.367-0.343-0.147-0.367l-0.084-0.034c-0.002-0.135,0.102,0.002,0.153-0.094
							c-0.004-0.041-0.155-0.041-0.092-0.112c0.359,0.033-0.022-0.333,0.382-0.297c-0.013,0.076,0.177-0.104,0.231,0.078
							c0.05-0.045,0.069-0.286-0.105-0.277c-0.182-0.034-0.329-0.133-0.485-0.008l0.127,0.038c-0.14,0.034-0.072,0.028-0.174,0.036
							c-0.048,0.171-0.243,0.172-0.344,0.279c0.004,0,0.008-0.001,0.015,0.001c0.144,0.104,0.029,0.206-0.004,0.265l-0.077,0.013
							c-0.158,0.009,0.265,0.247,0.013,0.145c-0.003,0.173,0.003,0.366-0.05,0.547c-0.064,0.179-0.13,0.363-0.195,0.544
							c0.075,0.086-0.112,0.274,0.098,0.268c-0.245,0.007-0.376,0.255-0.428,0.347c-0.017-0.012-0.036-0.027-0.02-0.037
							c-0.36,0.04,0.108,0.333-0.299,0.327c0.198,0.152-0.243,0.25-0.053,0.502c-0.059-0.01-0.104-0.031-0.137-0.063
							c-0.153,0.312-0.521,0.503-0.702,0.718c-0.006,0.336-0.446,0.38-0.429,0.716c-0.186,0.064-0.481,0.138-0.603,0.389
							l-0.003-0.045c-0.191,0.211-0.507,0.352-0.585,0.617c-0.212-0.214-0.288-0.108-0.435-0.135
							c-0.051,0.103-0.164,0.19-0.289,0.283c-0.137,0.066-0.287,0.132-0.404,0.232c-0.083-0.113-0.209,0.124-0.279-0.057
							c-0.452,0.485-1.186,0.501-1.833,0.473l-3.552-0.155l3.551,1.102c0.254,0.079,0.498,0.176,0.721,0.281l-0.014,0.012
							c0.12-0.093,0.284-0.31,0.427-0.431c0.008,0.018,0.001,0.049-0.023,0.045c0.171-0.023,0.28,0.187,0.436,0.21
							c-0.009,0.031-0.009,0.031-0.04,0.053c0.165-0.038,0.249,0.241,0.457,0.15l-0.006,0.051l0.128-0.035
							c-0.023,0.06-0.058,0.149-0.106,0.112c0.156,0.057,0.315,0.108,0.477,0.154c0.158,0.054,0.303,0.144,0.459,0.209
							c0.299,0.155,0.65,0.237,0.934,0.437l0.881,0.579c0.251,0.245,0.492,0.507,0.718,0.779l-0.082-0.001l0.268,0.139
							c-0.027,0.018-0.048,0.018-0.068,0.016c0.101,0.351,0.427,0.567,0.585,0.875c-0.028,0.013-0.109-0.001-0.115,0.055
							c0.141,0.077,0.144,0.156,0.157,0.288c0.012,0.167,0.043,0.332,0.222,0.271c-0.009,0.032-0.071,0.123-0.107,0.103
							c0.223,0.573,0.403,1.069,0.572,1.625c0.113,0.603,0.209,1.273,0.319,2.079c0.035-0.1,0.063-0.145,0.091-0.136
							c0.068-0.789,0.129-1.086,0.198-1.487c0.076-0.376,0.108-0.874,0.169-1.432l0.036,0.166c0.103-0.754,0.215-1.104,0.438-1.513
							c0.249-0.352,0.496-0.7,0.714-1.06c0.253-0.246,0.351-0.473,0.583-0.744l0.064,0.05c0.068-0.349,0.389-0.48,0.672-0.626
							c0.3-0.129,0.54-0.319,0.739-0.586l0.021,0.114c-0.004-0.191,0.358-0.121,0.183-0.36l0.141,0.026
							c0.097-0.271,0.298-0.326,0.505-0.366c0.21-0.04,0.449-0.004,0.656-0.209l-0.011,0.077c0.114-0.092,0.26-0.183,0.375-0.151
							c-0.013,0.014,0,0.032-0.026,0.06c0.468,0.102,0.876-0.209,1.342-0.258l-0.039,0.135c0.126-0.109,0.335-0.114,0.54-0.127
							l0.894-0.054l-0.894-0.154c-0.124-0.022-0.248-0.041-0.358-0.027l0.021-0.059l-0.151,0.069l0.007-0.123
							C250.635,190.646,250.259,190.761,249.903,190.662z"/>
						<path fill="#FF6BAA" d="M246.498,188.984v0.005C246.515,188.989,246.509,188.987,246.498,188.984z"/>
						<path fill="#FF6BAA" d="M243.558,184.472c0.01-0.015,0.02-0.027,0.032-0.039C243.564,184.433,243.565,184.459,243.558,184.472
							z"/>
					</g>
				</g>
			</g>
		</g>
	</g>
	<path fill="none" stroke="#0063EA" stroke-miterlimit="10" d="M92.843,436.208c-0.146,1.918-1.729,3.432-3.674,3.467
		c1.939,0.044,3.516,1.555,3.66,3.468c0.147-1.916,1.73-3.432,3.675-3.468C94.564,439.635,92.988,438.123,92.843,436.208z"/>
	<g>
		<circle fill="#FF559E" cx="117.525" cy="65.677" r="1.41"/>
	</g>
	<g>
		<circle fill="#FF559E" cx="342.048" cy="17.55" r="1.409"/>
	</g>
	<path fill="none" stroke="#FF559E" stroke-miterlimit="10" d="M173.001,248.258c0,0.778-0.63,1.411-1.411,1.411
		c-0.777,0-1.408-0.633-1.408-1.411c0-0.775,0.631-1.409,1.408-1.409C172.371,246.849,173.001,247.483,173.001,248.258z"/>
	<circle fill="none" stroke="#0063EA" stroke-miterlimit="10" cx="171.245" cy="56.833" r="1.41"/>
	<circle fill="none" stroke="#0063EA" stroke-miterlimit="10" cx="46.669" cy="64.268" r="1.409"/>
	<circle fill="none" stroke="#0063EA" stroke-miterlimit="10" cx="173.001" cy="300.369" r="1.409"/>
	<g>
		<circle fill="#0063EA" cx="194.181" cy="455.323" r="1.409"/>
	</g>
	<g>
		<circle fill="#0063EA" cx="149.117" cy="416.883" r="1.41"/>
	</g>
	<g>
		<path fill="#0063EA" d="M250.2,382.178c0,0-7.252,7.564-14.569,15.065c-1.823,1.881-3.646,3.762-5.355,5.525
			c-0.879,0.857-1.71,1.705-2.531,2.475c-0.817,0.775-1.589,1.508-2.302,2.185c-0.711,0.679-1.388,1.274-1.974,1.817
			c-0.588,0.541-1.105,1.007-1.54,1.383c-0.866,0.754-1.362,1.185-1.362,1.185l-0.07-0.07c0,0,0.431-0.495,1.184-1.362
			c0.377-0.435,0.843-0.952,1.384-1.54c0.542-0.586,1.139-1.264,1.817-1.974c0.677-0.713,1.409-1.485,2.184-2.302
			c0.771-0.822,1.617-1.652,2.475-2.532c1.764-1.709,3.646-3.532,5.526-5.355c7.5-7.316,15.064-14.569,15.064-14.569L250.2,382.178z
			"/>
	</g>
	<g>
		<path fill="#FF559E" d="M127.254,208.168c0,0-5.312,5.625-10.69,11.186c-1.335,1.399-2.661,2.808-3.931,4.102
			c-0.652,0.63-1.263,1.258-1.876,1.819c-0.608,0.567-1.184,1.103-1.714,1.597c-0.528,0.497-1.039,0.927-1.478,1.321
			c-0.44,0.393-0.829,0.73-1.157,1.001c-0.646,0.55-1.029,0.851-1.029,0.851l-0.07-0.07c0,0,0.301-0.383,0.851-1.029
			c0.27-0.328,0.608-0.717,1.001-1.157c0.395-0.438,0.824-0.949,1.321-1.478c0.495-0.531,1.03-1.106,1.597-1.714
			c0.562-0.614,1.189-1.225,1.819-1.877c1.293-1.27,2.703-2.595,4.102-3.931c5.56-5.377,11.185-10.69,11.185-10.69L127.254,208.168z
			"/>
	</g>
	<g>
		<path fill="#FF559E" d="M365.226,83.112c0,0-3.181,3.493-6.426,6.921c-0.803,0.866-1.595,1.742-2.365,2.536
			c-0.791,0.774-1.546,1.479-2.224,2.052c-0.683,0.569-1.248,1.046-1.67,1.354c-0.413,0.317-0.663,0.484-0.663,0.484l-0.07-0.07
			c0,0,0.168-0.25,0.484-0.663c0.308-0.422,0.784-0.988,1.354-1.67c0.573-0.678,1.278-1.433,2.053-2.223
			c0.793-0.771,1.67-1.562,2.535-2.365c3.429-3.245,6.922-6.426,6.922-6.426L365.226,83.112z"/>
	</g>
	<path fill="none" stroke="#FF559E" stroke-miterlimit="10" d="M292.287,55.422c0,0.409-0.332,0.742-0.74,0.742
		s-0.741-0.333-0.741-0.742c0-0.407,0.333-0.74,0.741-0.74S292.287,55.016,292.287,55.422z"/>
	<circle fill="none" stroke="#0063EA" stroke-miterlimit="10" cx="320.4" cy="336.51" r="2.127"/>
	<path fill="none" stroke="#FF559E" stroke-miterlimit="10" d="M319.014,420.442c0,0.408-0.331,0.739-0.742,0.739
		c-0.406,0-0.74-0.331-0.74-0.739c0-0.409,0.334-0.74,0.74-0.74C318.683,419.702,319.014,420.033,319.014,420.442z"/>
	<circle fill="none" stroke="#0063EA" stroke-miterlimit="10" cx="119.281" cy="351.369" r="1.41"/>
	<circle fill="none" stroke="#0063EA" stroke-miterlimit="10" cx="44.52" cy="166.369" r="1.409"/>
	<circle fill="none" stroke="#0063EA" stroke-miterlimit="10" cx="52.776" cy="263.425" r="1.411"/>
	<circle fill="none" stroke="#FF559E" stroke-miterlimit="10" cx="45.26" cy="345.107" r="0.74"/>
	<circle fill="none" stroke="#FF559E" stroke-miterlimit="10" cx="244.188" cy="38.486" r="0.74"/>
</g>
</svg>
