<?xml version="1.0" encoding="utf-8"?>
<!-- Generator: Adobe Illustrator 16.0.3, SVG Export Plug-In . SVG Version: 6.00 Build 0)  -->
<!DOCTYPE svg PUBLIC "-//W3C//DTD SVG 1.1//EN" "http://www.w3.org/Graphics/SVG/1.1/DTD/svg11.dtd">
<svg version="1.1" id="Layer_1" xmlns="http://www.w3.org/2000/svg" xmlns:xlink="http://www.w3.org/1999/xlink" x="0px" y="0px"
	 width="40.938px" height="33.529px" viewBox="0 0 40.938 33.529" enable-background="new 0 0 40.938 33.529" xml:space="preserve">
<g>
	<g>
		<polygon points="21.84,0.209 21.772,0.265 22.004,0.374 		"/>
	</g>
	<g>
		<path d="M22.444,0.98c0.031-0.028,0.098-0.026,0.131-0.054l-0.676-0.412C21.599,0.768,22.646,0.818,22.444,0.98z"/>
	</g>
	<g>
		<path d="M22.407,1.125c-0.109,0.205,0.184,0.242,0.286,0.27C22.466,1.364,22.701,1.047,22.407,1.125z"/>
	</g>
	<g>
		<path d="M31.501,13.952c-0.015-0.006-0.039-0.01-0.059-0.01C31.467,13.964,31.486,13.964,31.501,13.952z"/>
	</g>
	<g>
		<path d="M35.68,14.556l0.093-0.205c-0.814,0.162-1.506-0.481-2.31-0.551l0.082-0.058c-0.905-0.413-1.747-0.865-2.663-1.207
			c-0.867-0.422-1.671-0.981-2.539-1.53c0.038,0,0.091-0.041,0.136-0.04c-0.129-0.003-0.312,0.034-0.386-0.049
			c0.012-0.054,0.095-0.057,0.139-0.052c-0.047-0.553-1.007-0.772-0.983-1.165c-0.111-0.062-0.264-0.002-0.307,0.126
			c-0.578-0.568-1.179-1.163-1.622-1.886c-0.457-0.707-1.088-1.341-1.496-2.082c0.016-0.097,0.104-0.152,0.229-0.184
			c-0.525-0.543-0.877-1.218-1.138-1.92c-0.269-0.701-0.219-1.487-0.323-2.211c-0.167-0.032-0.142,0.175-0.329,0.057
			c-0.111,0.518,0.529,0.794,0.324,1.281l-0.157-0.019c-0.039,0.337,0.385-0.028,0.25,0.343c-0.1,0.16-0.192,0.017-0.195,0.079
			c0.233,0.634,0.397,1.344,0.952,1.808c-0.252,0.271,0.245,0.68,0.044,1.04c0.182,0.111,0.209,0.293,0.438,0.253
			c0.548,1.029,1.109,2.104,1.896,2.997l1.241,1.287l0.615,0.648l0.702,0.553c0.645,0.103,1.086,0.491,1.536,0.953
			c0.436,0.475,1.009,0.832,1.624,1.071c0,0.023-0.014,0.045-0.032,0.057c0.459,0.06,1.029,0.293,1.456,0.587l0.51-0.123
			c0.853,0.434,1.753,0.876,2.704,1.104c0.97,0.154,1.955,0.259,2.938,0.365v-1.394l-3.435,0.348c-3.47,0.62-6.701,2.085-8.51,5.158
			c-0.043-0.047-0.087-0.049-0.047-0.135c-0.519,0.861-1.437,1.299-1.753,2.229l-0.05-0.04c-0.344,1.118-1.145,2.242-1.329,2.971
			c-0.159,0.405-0.31,0.794-0.448,1.259c-0.103,0.454-0.109,0.963-0.169,1.832c-0.073,0.392-0.147,0.79-0.229,1.244
			c-0.179-0.914-0.265-1.793-0.545-2.715L22.01,25.24c-0.189-0.479-0.414-0.985-0.774-1.448l0.116-0.054
			c-0.716-0.88-1.09-1.94-1.811-2.794c-0.324-0.452-0.652-0.909-1.002-1.353c-0.353-0.437-0.841-0.745-1.305-1.072
			c-0.42-0.407-0.87-0.811-1.399-1.083c-0.553-0.241-1.125-0.446-1.686-0.647c-1.091-0.502-2.307-0.531-3.338-1.108
			c-0.964-0.804-2.496-0.14-3.612-0.278l-1.57-0.193l1.572-0.233c0.344-0.052,0.668-0.043,0.979,0.069
			c0.698,0.166,1.418,0.229,2.123,0.215c0.686-0.108,1.351-0.341,1.997-0.594c0.323-0.129,0.641-0.27,0.952-0.417
			c0.295-0.186,0.57-0.413,0.847-0.624c0.551-0.437,1.083-0.877,1.594-1.325c2.233-1.265,3.464-3.513,5.148-5.262
			c0.271-1.142,1.575-1.934,1.93-3.249l-0.166-0.004c0.665-0.308-0.341-1.159,0.384-1.277l0.023,0.055
			c0.396-0.176-0.734-0.737-0.291-0.796l-0.166-0.071c-0.003-0.296,0.205,0.002,0.312-0.212c-0.008-0.088-0.314-0.082-0.183-0.24
			c0.728,0.062-0.034-0.727,0.782-0.658c-0.028,0.166,0.36-0.229,0.466,0.166c0.104-0.1,0.148-0.624-0.205-0.603
			c-0.367-0.073-0.663-0.286-0.983-0.012l0.258,0.081c-0.285,0.078-0.146,0.063-0.356,0.081c-0.099,0.378-0.497,0.382-0.702,0.62
			c0.007,0,0.015-0.002,0.029,0.004c0.286,0.223,0.053,0.451-0.015,0.582l-0.157,0.03c-0.323,0.026,0.529,0.534,0.02,0.318
			c-0.013,0.381,0,0.804-0.118,1.203c-0.143,0.395-0.289,0.798-0.431,1.196c0.148,0.186-0.245,0.604,0.183,0.579
			c-0.503,0.029-0.781,0.581-0.897,0.781c-0.033-0.026-0.072-0.057-0.038-0.078c-0.749,0.11,0.195,0.709-0.644,0.727
			c0.396,0.312-0.523,0.562-0.151,1.086c-0.119-0.018-0.21-0.06-0.278-0.124c-0.335,0.687-1.133,1.118-1.533,1.594
			c-0.04,0.715-0.975,0.854-0.973,1.553c-0.399,0.147-1.038,0.33-1.319,0.864l-0.001-0.093c-0.427,0.463-1.122,0.769-1.311,1.323
			c-0.439-0.426-0.615-0.201-0.93-0.244c-0.119,0.215-0.371,0.405-0.648,0.604c-0.304,0.143-0.636,0.285-0.896,0.494
			c-0.176-0.228-0.461,0.263-0.608-0.101c-1.011,1.021-2.615,1.055-4.041,1.015L0,14.029l7.184,2.115
			c0.559,0.166,1.1,0.368,1.593,0.587l-0.027,0.023c0.262-0.184,0.616-0.62,0.924-0.863c0.021,0.038,0.006,0.102-0.049,0.093
			c0.373-0.045,0.618,0.384,0.962,0.443c-0.02,0.062-0.02,0.062-0.087,0.104c0.359-0.067,0.555,0.503,1.007,0.329l-0.011,0.104
			l0.275-0.064c-0.045,0.12-0.116,0.303-0.225,0.224c0.344,0.124,0.695,0.236,1.052,0.339c0.347,0.123,0.666,0.32,1.01,0.465
			c0.654,0.348,1.427,0.531,2.045,0.975l1.927,1.289c0.548,0.543,1.077,1.117,1.574,1.714l-0.172-0.01l0.573,0.319
			c-0.056,0.036-0.101,0.032-0.143,0.028c0.237,0.76,0.929,1.254,1.28,1.928c-0.057,0.025-0.228-0.012-0.235,0.11
			c0.296,0.174,0.314,0.348,0.345,0.632c0.029,0.342,0.095,0.674,0.461,0.566c-0.018,0.065-0.146,0.243-0.221,0.202
			c0.466,1.177,0.849,2.216,1.206,3.369c0.248,1.312,0.457,2.755,0.694,4.478c0.074-0.172,0.139-0.239,0.195-0.199
			c0.148-1.659,0.282-2.316,0.433-3.19c0.166-0.819,0.239-1.896,0.371-3.014l0.077,0.316c0.225-1.543,0.473-2.331,0.957-3.214
			c0.542-0.771,1.075-1.541,1.559-2.328c0.549-0.541,0.773-1.031,1.284-1.624l0.131,0.102c0.168-0.749,0.863-1.041,1.475-1.371
			c0.652-0.29,1.174-0.717,1.627-1.278l0.035,0.235c0.005-0.396,0.779-0.274,0.42-0.755l0.3,0.044
			c0.23-0.565,0.664-0.691,1.112-0.788c0.456-0.097,0.978-0.031,1.436-0.46l-0.027,0.155c0.255-0.193,0.574-0.383,0.825-0.325
			c-0.029,0.029-0.004,0.065-0.061,0.122c1.013,0.178,1.922-0.454,2.941-0.564l-0.089,0.274c0.278-0.224,0.735-0.237,1.186-0.267
			l1.81-0.119l-1.81-0.304c-0.271-0.045-0.544-0.085-0.785-0.062l0.047-0.116l-0.331,0.135l0.016-0.249
			C37.278,14.541,36.457,14.776,35.68,14.556z"/>
	</g>
	<g>
		<path d="M28.231,10.865l0.002,0.012C28.267,10.876,28.255,10.872,28.231,10.865z"/>
	</g>
	<g>
		<path d="M21.876,1.005c0.021-0.032,0.043-0.059,0.067-0.087C21.891,0.92,21.891,0.978,21.876,1.005z"/>
	</g>
</g>
</svg>
