<?xml version="1.0" encoding="utf-8"?>
<!-- Generator: Adobe Illustrator 16.0.3, SVG Export Plug-In . SVG Version: 6.00 Build 0)  -->
<!DOCTYPE svg PUBLIC "-//W3C//DTD SVG 1.1//EN" "http://www.w3.org/Graphics/SVG/1.1/DTD/svg11.dtd">
<svg version="1.1" id="Layer_1" xmlns="http://www.w3.org/2000/svg" xmlns:xlink="http://www.w3.org/1999/xlink" x="0px" y="0px"
	 width="58.279px" height="23.141px" viewBox="0 0 58.279 23.141" enable-background="new 0 0 58.279 23.141" xml:space="preserve">
<g>
	<g>
		<g>
			<polygon points="58.254,11.658 58.279,11.59 58.189,11.412 			"/>
		</g>
		<g>
			<path d="M57.944,10.527c-0.007,0.035-0.033,0.025-0.041,0.061c0,0,0.087,0.154,0.172,0.311c0.097,0.154,0.149,0.326,0.149,0.326
				C58.343,10.891,57.888,10.732,57.944,10.527z"/>
		</g>
		<g>
			<path d="M57.92,10.33c-0.029-0.262-0.163-0.334-0.215-0.377C57.811,10.014,57.829,10.414,57.92,10.33z"/>
		</g>
		<g>
			<path d="M39.387,0.73c0.021,0.002,0.053,0.004,0.074,0.004C39.425,0.727,39.399,0.725,39.387,0.73z"/>
		</g>
		<g>
			<path d="M33.789,0.479l-0.062,0.08c1.048-0.082,2.206,0.17,3.304,0.236l-0.077,0.02c2.767,0.35,5.326,0.668,8.031,1.307
				c-0.044-0.002-0.064,0.018-0.109,0.016c0.138,0.004,0.295-0.008,0.438,0.041c0.032,0.027-0.052,0.025-0.101,0.021
				c0.529,0.281,1.68,0.395,1.997,0.611c0.161,0.035,0.248,0.006,0.174-0.064c2.077,0.656,4.259,1.516,6.213,2.637
				c0.082,0.072,0.077,0.115,0.027,0.139c1.707,0.85,3.32,2.322,4.066,4.246c0.088,0.051-0.028-0.215,0.113-0.053
				c-0.198-0.656-0.667-1.021-0.932-1.549l0.09,0.027c-0.228-0.373-0.157,0.01-0.386-0.377c-0.078-0.164,0.084-0.014,0.034-0.078
				c-0.608-0.682-1.292-1.354-2.054-1.74c-0.098-0.223-0.778-0.562-1.001-0.824c-0.222-0.08-0.413-0.211-0.529-0.188
				c-2.667-1.613-5.719-2.533-8.759-3.301c-1.479-0.121-3.144-0.748-4.886-0.932c-0.011-0.01-0.008-0.02,0.006-0.023
				c-0.571-0.035-1.395-0.111-2.064-0.225l-0.581,0.035c-4.035-0.652-8.228-0.602-12.362-0.428
				c-4.689,0.258-8.87,0.725-13.188,2.355c-0.002-0.025-0.041-0.027,0.068-0.07c-1.252,0.43-2.422,0.758-3.555,1.297L7.698,3.674
				C6.307,4.367,4.869,5.111,3.555,6.037c-1.298,0.928-2.502,2.1-3.051,3.523c-0.395,0.824-0.594,1.793-0.465,2.758
				c0.137,0.963,0.573,1.879,1.167,2.662c1.205,1.578,2.918,2.68,4.607,3.559l-0.031,0.039c2.763,1.322,5.53,2.463,8.536,3.094
				c3.058,0.822,6.41,0.902,9.551,1.258c1.95,0.375,4.539-0.062,6.375,0.137c3.795,0.287,7.485-0.289,11.15-1.203
				c3.458-0.537,6.717-1.809,9.855-3.021c1.344-0.848,3.079-1.422,4.38-2.709l-0.085,0.004c0.599-0.332,0.797-1.197,1.218-1.373
				l-0.03,0.061c0.33-0.203,0.151-0.832,0.391-0.924l-0.039-0.08c0.148-0.373,0.089-0.01,0.241-0.285
				c0.035-0.113-0.079-0.08,0.028-0.299c0.132,0.02,0.205-0.225,0.258-0.465c0.035-0.246,0.075-0.484,0.229-0.48
				c-0.04,0.232,0.179-0.35,0.149,0.184c0.088-0.141,0.087-0.887-0.038-0.816c-0.14-0.059-0.251-0.322-0.368,0.088l0.095,0.084
				c-0.108,0.135-0.057,0.104-0.135,0.146c-0.014,0.262-0.094,0.4-0.16,0.518c-0.067,0.115-0.126,0.215-0.219,0.375
				c0.003-0.004,0.008-0.006,0.011,0c0.019,0.135-0.015,0.283-0.063,0.416c-0.064,0.129-0.141,0.246-0.188,0.332l-0.084,0.047
				c-0.138,0.057-0.09,0.617-0.179,0.387c-0.473,0.938-1.358,1.832-2.315,2.564c-0.08,0.174-0.757,0.537-0.455,0.506
				c-0.341,0.047-1.124,0.49-1.415,0.658c0.003-0.02,0.008-0.041,0.056-0.062c-0.672,0.127-0.576,0.559-1.247,0.596
				c0,0.219-1.026,0.424-1.257,0.762c-0.087-0.01-0.125-0.033-0.111-0.074c-1.015,0.439-2.194,0.777-3.086,1.057
				c-0.715,0.4-1.874,0.486-2.489,0.867c-0.566,0.098-1.486,0.217-2.252,0.463l0.07-0.043c-0.88,0.199-1.987,0.41-2.578,0.641
				c-0.3-0.174-0.676-0.062-1.073-0.082c-0.583,0.186-1.794,0.309-2.701,0.486c-0.151-0.088-0.754,0.111-0.813-0.029
				c-2.546,0.508-5.771,0.5-8.515,0.189l0.041-0.01c-0.359,0.072-0.779,0.23-1.149,0.312c-0.035-0.014-0.029-0.039,0.047-0.033
				c-0.506,0.002-0.97-0.162-1.474-0.176c0.006-0.023,0.006-0.023,0.09-0.039c-0.478,0.031-0.965-0.182-1.529-0.125l-0.026-0.041
				l-0.358,0.021c0.013-0.047,0.033-0.117,0.22-0.084c-4.283-0.443-8.759-1.006-12.929-2.553l0.167,0.016l-0.832-0.227
				c0.014-0.021,0.056-0.018,0.099-0.014c-0.986-0.471-2.077-0.809-3.01-1.326c0.015-0.02,0.178,0.018,0.061-0.076
				c-0.757-0.262-0.999-0.771-1.478-0.748c-0.024-0.031-0.013-0.094,0.068-0.07c-0.934-0.555-1.83-1.217-2.56-2.031
				c-0.721-0.811-1.314-1.771-1.477-2.816c-0.298-0.836-0.21-1.848,0.193-2.723C1.031,8.918,1.649,8.143,2.267,7.41l0.028,0.041
				C3.986,5.594,6.511,4.527,8.88,3.572c1.005-0.369,1.678-0.643,2.707-0.965l0.044,0.051c1.682-0.746,3.734-0.764,5.542-1.344
				L17.061,1.42c0.266-0.184,1.135-0.15,0.989-0.348l0.34,0.014c1.233-0.486,2.339-0.199,3.886-0.537l-0.099,0.062
				c0.414-0.078,0.898-0.16,1.214-0.131c-0.048,0.01-0.024,0.023-0.123,0.045c1.324,0.104,2.768-0.195,4.157-0.221L27.27,0.406
				c0.668-0.129,1.897-0.033,2.777-0.07l-0.055,0.045l0.446-0.059l0.01,0.092C31.592,0.451,32.672,0.41,33.789,0.479z"/>
		</g>
		<g>
			<path d="M45.212,2.199l-0.01-0.006C45.167,2.191,45.183,2.195,45.212,2.199z"/>
		</g>
		<g>
			<path d="M57.106,12.986c0.022-0.045,0.04-0.082,0.059-0.117C57.144,12.873,57.124,12.947,57.106,12.986z"/>
		</g>
	</g>
	<g>
		<path d="M29.895,17.861c-0.015-0.414,0.315-0.76,0.729-0.775l0,0c0.413-0.014,0.759,0.316,0.773,0.729l0,0
			c0.016,0.414-0.315,0.76-0.729,0.775l0,0l0,0l0,0c-0.008,0-0.015,0-0.022,0l0,0C30.24,18.59,29.91,18.273,29.895,17.861z
			 M26.858,18.582c-0.413-0.016-0.736-0.369-0.722-0.781l0,0c0.016-0.414,0.361-0.736,0.781-0.723l0,0
			c0.414,0.016,0.737,0.361,0.722,0.783l0,0c-0.015,0.398-0.346,0.721-0.751,0.721l0,0C26.881,18.582,26.874,18.582,26.858,18.582z
			 M33.645,17.658c-0.037-0.414,0.256-0.783,0.669-0.828l0,0c0.414-0.037,0.781,0.256,0.827,0.67l0,0
			c0.045,0.412-0.256,0.781-0.669,0.826l0,0c-0.022,0.008-0.053,0.008-0.075,0.008l0,0C34.014,18.334,33.69,18.049,33.645,17.658z
			 M23.056,18.305L23.056,18.305L23.056,18.305c-0.413-0.045-0.707-0.422-0.661-0.836l0,0c0.045-0.412,0.413-0.705,0.826-0.66l0,0
			c0.413,0.045,0.714,0.42,0.67,0.834l0,0c-0.046,0.375-0.369,0.662-0.752,0.662l0,0C23.116,18.305,23.086,18.305,23.056,18.305z
			 M37.372,17.17c-0.083-0.406,0.188-0.797,0.594-0.881l0,0c0.406-0.082,0.805,0.182,0.887,0.594l0,0
			c0.076,0.406-0.188,0.797-0.594,0.881l0,0c-0.052,0.006-0.098,0.014-0.149,0.014l0,0C37.756,17.777,37.448,17.529,37.372,17.17z
			 M19.275,17.717c-0.406-0.09-0.669-0.48-0.587-0.887l0,0c0.083-0.412,0.481-0.676,0.888-0.586l0,0
			c0.406,0.084,0.669,0.475,0.586,0.889l0,0c-0.075,0.352-0.384,0.6-0.736,0.6l0,0C19.381,17.732,19.328,17.725,19.275,17.717z
			 M41.04,16.32c-0.135-0.391,0.075-0.82,0.474-0.947l0,0c0.391-0.129,0.819,0.082,0.947,0.473l0,0
			c0.135,0.398-0.083,0.82-0.475,0.955l0,0l0,0l0,0c-0.074,0.023-0.157,0.037-0.232,0.037l0,0
			C41.438,16.838,41.138,16.635,41.04,16.32z M15.555,16.719L15.555,16.719L15.555,16.719c-0.397-0.137-0.601-0.564-0.465-0.955l0,0
			c0.135-0.398,0.563-0.602,0.954-0.467l0,0c0.391,0.137,0.601,0.564,0.466,0.955l0,0c-0.105,0.309-0.398,0.504-0.714,0.504l0,0
			C15.713,16.756,15.631,16.74,15.555,16.719z M44.527,14.938c-0.226-0.346-0.12-0.812,0.226-1.037l0,0
			c0.353-0.219,0.819-0.121,1.044,0.225l0,0c0.226,0.354,0.121,0.82-0.225,1.045l0,0c0,0,0,0-0.008,0l0,0
			c-0.12,0.074-0.264,0.113-0.405,0.113l0,0C44.918,15.283,44.67,15.162,44.527,14.938z M11.993,15.006
			c-0.346-0.234-0.429-0.701-0.196-1.047l0,0c0.241-0.346,0.707-0.428,1.053-0.188h-0.008c0.346,0.234,0.429,0.699,0.195,1.045l0,0
			c-0.143,0.211-0.383,0.324-0.616,0.324l0,0C12.271,15.141,12.121,15.094,11.993,15.006z M46.526,11.631
			c0-0.414,0.338-0.752,0.751-0.752l0,0c0.414,0,0.752,0.338,0.752,0.752l0,0l0,0l0,0c0,0.412-0.33,0.752-0.752,0.752l0,0
			C46.864,12.383,46.526,12.043,46.526,11.631z M10.467,12.096c-0.405-0.059-0.691-0.443-0.638-0.848l0,0
			c0.06-0.414,0.443-0.701,0.849-0.641l0,0c0.413,0.053,0.699,0.436,0.639,0.842l0,0c-0.053,0.377-0.376,0.654-0.744,0.654l0,0
			C10.542,12.104,10.505,12.096,10.467,12.096z M45.211,9.676c-0.33-0.256-0.397-0.721-0.149-1.051l0,0
			c0.248-0.34,0.721-0.406,1.052-0.15l0,0c0.331,0.248,0.398,0.713,0.15,1.051l0,0c-0.15,0.195-0.376,0.301-0.602,0.301l0,0
			C45.505,9.826,45.347,9.773,45.211,9.676z M12.286,8.971c-0.211-0.361-0.098-0.82,0.255-1.031l0,0l0,0l0,0
			c0.354-0.217,0.819-0.098,1.03,0.256l0,0c0.218,0.354,0.098,0.818-0.256,1.029l0,0c-0.12,0.076-0.255,0.105-0.383,0.105l0,0
			C12.677,9.33,12.429,9.203,12.286,8.971z M42.069,8.084c-0.39-0.145-0.594-0.572-0.458-0.963l0,0
			c0.143-0.391,0.571-0.594,0.962-0.451l0,0c0,0,0,0,0.007,0l0,0c0.384,0.143,0.587,0.572,0.452,0.963l0,0
			c-0.113,0.307-0.406,0.496-0.715,0.496l0,0C42.234,8.129,42.152,8.113,42.069,8.084z M15.66,7.324
			c-0.127-0.391,0.091-0.82,0.488-0.939l0,0l0,0l0,0c0.392-0.129,0.812,0.09,0.939,0.488l0,0c0.128,0.391-0.09,0.818-0.488,0.939
			l0,0c-0.075,0.023-0.15,0.037-0.225,0.037l0,0C16.051,7.85,15.758,7.646,15.66,7.324z M38.545,7.098
			c-0.405-0.082-0.662-0.488-0.579-0.893l0,0c0.091-0.406,0.489-0.662,0.896-0.572l0,0l0,0l0,0c0.405,0.082,0.661,0.48,0.578,0.887
			l0,0c-0.075,0.354-0.391,0.594-0.736,0.594l0,0C38.65,7.113,38.598,7.113,38.545,7.098z M19.282,6.332
			c-0.082-0.406,0.188-0.797,0.603-0.879l0,0c0,0,0,0,0,0.008l0,0c0.405-0.084,0.796,0.188,0.871,0.594l0,0
			c0.083,0.404-0.188,0.803-0.594,0.879l0,0c-0.053,0.008-0.098,0.014-0.143,0.014l0,0C19.666,6.947,19.351,6.693,19.282,6.332z
			 M34.907,6.504c-0.413-0.045-0.706-0.42-0.661-0.834l0,0c0.053-0.412,0.429-0.705,0.834-0.662l0,0
			c0.413,0.055,0.706,0.43,0.662,0.836l0,0c-0.045,0.383-0.369,0.668-0.745,0.668l0,0C34.968,6.512,34.938,6.504,34.907,6.504z
			 M22.995,5.738c-0.044-0.414,0.256-0.781,0.669-0.818l0,0l0,0l0,0c0.414-0.039,0.781,0.262,0.827,0.668l0,0
			c0.037,0.414-0.264,0.781-0.677,0.826l0,0c-0.022,0-0.053,0-0.075,0l0,0C23.356,6.414,23.033,6.129,22.995,5.738z M31.218,6.211
			c-0.414-0.021-0.737-0.367-0.722-0.781l0,0c0.022-0.422,0.368-0.736,0.789-0.721l0,0c0,0,0,0-0.008,0l0,0
			c0.414,0.014,0.736,0.367,0.722,0.781l0,0c-0.015,0.406-0.354,0.721-0.751,0.721l0,0C31.24,6.211,31.225,6.211,31.218,6.211z
			 M26.738,5.453c-0.008-0.414,0.315-0.76,0.736-0.775l0,0c0,0,0,0,0,0.008l0,0c0.413-0.014,0.759,0.309,0.767,0.729l0,0
			c0.015,0.414-0.315,0.76-0.729,0.768l0,0c-0.007,0-0.015,0-0.021,0l0,0C27.084,6.182,26.746,5.859,26.738,5.453z"/>
	</g>
</g>
</svg>
