<?xml version="1.0" encoding="utf-8"?>
<!-- Generator: Adobe Illustrator 16.0.3, SVG Export Plug-In . SVG Version: 6.00 Build 0)  -->
<!DOCTYPE svg PUBLIC "-//W3C//DTD SVG 1.1//EN" "http://www.w3.org/Graphics/SVG/1.1/DTD/svg11.dtd">
<svg version="1.1" id="Layer_1" xmlns="http://www.w3.org/2000/svg" xmlns:xlink="http://www.w3.org/1999/xlink" x="0px" y="0px"
	 width="80px" height="52.5px" viewBox="0 0 80 52.5" enable-background="new 0 0 80 52.5" xml:space="preserve">
<g>
	<g>
		<path d="M21.77,44.279c-0.55-0.039-0.97-0.51-0.93-1.06l0,0c0.04-0.55,0.52-0.97,1.07-0.93l0,0c0.55,0.04,0.96,0.521,0.92,1.069
			l0,0c-0.03,0.53-0.471,0.931-0.99,0.931l0,0C21.81,44.29,21.79,44.29,21.77,44.279z M17.7,43.82c-0.54-0.09-0.91-0.601-0.82-1.15
			l0,0c0.08-0.54,0.6-0.92,1.14-0.82l0,0l0,0l0,0c0.55,0.08,0.92,0.6,0.83,1.141l0,0c-0.08,0.49-0.5,0.84-0.99,0.84l0,0
			C17.81,43.83,17.76,43.83,17.7,43.82z M13.68,42.93c-0.53-0.15-0.83-0.71-0.68-1.24l0,0c0.149-0.529,0.71-0.84,1.24-0.68l0,0
			c0.529,0.15,0.829,0.71,0.68,1.24l0,0c-0.13,0.439-0.53,0.72-0.96,0.72l0,0C13.87,42.97,13.78,42.96,13.68,42.93z M9.78,41.439
			c-0.49-0.25-0.69-0.85-0.45-1.34l0,0c0.25-0.5,0.85-0.699,1.35-0.449l0,0c0.49,0.25,0.69,0.85,0.44,1.34l0,0
			c-0.17,0.35-0.521,0.56-0.891,0.56l0,0C10.08,41.55,9.93,41.51,9.78,41.439z M6.25,39L6.25,39c-0.391-0.391-0.4-1.02-0.01-1.42
			l0,0c0.38-0.391,1.02-0.4,1.409-0.01l0,0l0,0l0,0c0.391,0.39,0.4,1.02,0.011,1.42l0,0c-0.19,0.189-0.45,0.289-0.71,0.289l0,0
			C6.7,39.279,6.439,39.189,6.25,39z M3.939,35.17c-0.14-0.54,0.181-1.08,0.71-1.23l0,0c0.53-0.14,1.08,0.18,1.221,0.711l0,0
			c0.14,0.539-0.17,1.08-0.71,1.229l0,0c-0.08,0.021-0.17,0.03-0.25,0.03l0,0C4.46,35.91,4.06,35.609,3.939,35.17z M4.74,31.92
			c-0.53-0.16-0.82-0.721-0.66-1.24l0,0c0.16-0.529,0.71-0.83,1.239-0.67l0,0c0.53,0.16,0.83,0.721,0.671,1.25l0,0l0,0l0,0
			c-0.131,0.43-0.53,0.71-0.96,0.71l0,0C4.939,31.97,4.84,31.949,4.74,31.92z M6.28,28.24c-0.45-0.32-0.551-0.95-0.221-1.391l0,0
			C6.38,26.4,7.01,26.3,7.45,26.63l0,0C7.899,26.949,8,27.57,7.68,28.02l0,0c-0.2,0.271-0.51,0.41-0.82,0.41l0,0
			C6.66,28.43,6.45,28.369,6.28,28.24z M8.8,25.15c-0.37-0.41-0.35-1.041,0.05-1.42l0,0c0.41-0.371,1.04-0.351,1.42,0.049l0,0
			c0.37,0.41,0.351,1.041-0.05,1.41l0,0l0,0l0,0c-0.2,0.18-0.439,0.271-0.689,0.271l0,0C9.27,25.46,9,25.359,8.8,25.15z
			 M11.819,22.52c-0.319-0.449-0.22-1.07,0.23-1.4l0,0c0.44-0.319,1.07-0.219,1.39,0.23l0,0c0.33,0.45,0.221,1.07-0.22,1.4l0,0l0,0
			l0,0c-0.18,0.119-0.39,0.189-0.59,0.189l0,0C12.319,22.939,12.02,22.79,11.819,22.52z M15.12,20.26
			c-0.28-0.48-0.12-1.09,0.35-1.37l0,0c0.48-0.28,1.09-0.12,1.37,0.351l0,0c0.28,0.479,0.12,1.09-0.35,1.369l0,0
			c-0.16,0.101-0.341,0.141-0.511,0.141l0,0C15.64,20.75,15.31,20.58,15.12,20.26z"/>
	</g>
	<g>
		<path d="M60.41,35.43c-0.24-0.49-0.04-1.09,0.46-1.34l0,0c0.489-0.24,1.09-0.04,1.34,0.45l0,0c0.24,0.5,0.04,1.1-0.46,1.34h0.01
			c-0.15,0.08-0.3,0.11-0.45,0.11l0,0C60.939,35.99,60.59,35.779,60.41,35.43z M63.97,33.59c-0.28-0.471-0.13-1.08,0.35-1.37l0,0
			c0.471-0.28,1.091-0.12,1.37,0.36l0,0c0.28,0.47,0.12,1.08-0.35,1.369l0,0C65.18,34.04,65,34.09,64.83,34.09l0,0
			C64.49,34.09,64.149,33.91,63.97,33.59z M67.37,31.49c-0.33-0.45-0.23-1.08,0.22-1.4l0,0c0.45-0.32,1.07-0.221,1.4,0.23l0,0
			c0.319,0.439,0.22,1.069-0.23,1.39l0,0c-0.17,0.13-0.38,0.19-0.58,0.19l0,0C67.87,31.9,67.56,31.76,67.37,31.49z M70.54,29.05
			c-0.38-0.399-0.351-1.03,0.05-1.41l0,0c0.4-0.38,1.04-0.35,1.41,0.05l0,0c0.38,0.4,0.359,1.041-0.04,1.41l0,0
			c-0.2,0.18-0.44,0.27-0.69,0.27l0,0C71.01,29.369,70.74,29.27,70.54,29.05z M73.359,26.21c-0.449-0.32-0.55-0.95-0.229-1.399l0,0
			c0.33-0.441,0.95-0.541,1.4-0.221l0,0c0.449,0.33,0.539,0.95,0.22,1.4l0,0c-0.19,0.27-0.5,0.41-0.811,0.41l0,0
			C73.74,26.4,73.53,26.34,73.359,26.21z M75.479,22.82c-0.529-0.15-0.819-0.711-0.66-1.24l0,0c0.16-0.53,0.711-0.83,1.24-0.67l0,0
			c0.53,0.16,0.83,0.72,0.67,1.25l0,0c-0.13,0.43-0.529,0.709-0.96,0.709l0,0C75.68,22.869,75.58,22.85,75.479,22.82z M74.93,18.18
			c-0.14-0.529,0.18-1.08,0.71-1.22l0,0c0.54-0.149,1.08,0.17,1.23,0.71l0,0c0.14,0.529-0.181,1.08-0.71,1.22l0,0
			c-0.091,0.021-0.17,0.03-0.261,0.03l0,0C75.46,18.92,75.05,18.63,74.93,18.18z M73.149,15.26c-0.39-0.38-0.399-1.02-0.01-1.41l0,0
			c0.391-0.39,1.021-0.4,1.41-0.01l0,0c0.4,0.38,0.4,1.01,0.02,1.41l0,0c-0.199,0.199-0.46,0.3-0.72,0.3l0,0
			C73.6,15.55,73.35,15.449,73.149,15.26z M70.13,13.189c-0.5-0.25-0.7-0.85-0.45-1.34l0,0c0.25-0.5,0.851-0.699,1.34-0.449l0,0
			c0.5,0.239,0.7,0.84,0.45,1.34l0,0c-0.17,0.35-0.53,0.55-0.9,0.55l0,0C70.42,13.29,70.27,13.26,70.13,13.189z M66.569,11.83
			L66.569,11.83L66.569,11.83c-0.529-0.16-0.84-0.711-0.689-1.24l0,0c0.16-0.529,0.71-0.84,1.24-0.68l0,0
			c0.529,0.15,0.84,0.699,0.689,1.24l0,0c-0.13,0.43-0.529,0.719-0.96,0.719l0,0C66.75,11.869,66.66,11.85,66.569,11.83z
			 M62.78,10.99c-0.551-0.09-0.921-0.601-0.83-1.141l0,0c0.09-0.55,0.6-0.92,1.149-0.83l0,0c0.55,0.09,0.91,0.6,0.83,1.141l0,0
			c-0.08,0.5-0.51,0.85-0.99,0.85l0,0C62.89,11.01,62.83,11,62.78,10.99z M58.899,10.55c0,0,0,0-0.01,0l0,0
			c-0.55-0.04-0.96-0.521-0.92-1.069l0,0c0.04-0.551,0.51-0.961,1.07-0.931l0,0C59.59,8.59,60,9.07,59.96,9.619l0,0
			c-0.03,0.531-0.48,0.931-0.99,0.931l0,0C58.939,10.55,58.92,10.55,58.899,10.55z"/>
	</g>
	<g>
		<g>
			<polygon points="53.719,9.571 53.74,9.642 53.924,9.668 			"/>
		</g>
		<g>
			<path d="M54.648,10.104c-0.012-0.035,0.021-0.049,0.01-0.084l-0.652-0.191C54.098,10.139,54.586,9.895,54.648,10.104z"/>
		</g>
		<g>
			<path d="M54.764,10.248c0.131,0.212,0.299,0.178,0.373,0.182C55.002,10.451,54.826,10.102,54.764,10.248z"/>
		</g>
		<g>
			<path d="M61.26,29.48c0-0.023,0.002-0.053,0.004-0.076C61.252,29.441,61.252,29.466,61.26,29.48z"/>
		</g>
		<g>
			<path d="M59.977,34.941l0.074,0.102c0.17-0.509,0.336-1.049,0.576-1.567c0.234-0.522,0.477-1.052,0.566-1.612l0.016,0.085
				c0.877-2.715,0.996-5.413,0.641-8.179c0.014,0.042,0.047,0.054,0.062,0.098c-0.045-0.132-0.125-0.274-0.125-0.426
				c0.023-0.042,0.055,0.037,0.068,0.084c0.164-0.616-0.389-1.695-0.295-2.084c-0.047-0.16-0.135-0.216-0.176-0.113
				c-0.518-2.104-1.301-4.334-2.584-6.135c-0.029-0.105,0.004-0.148,0.072-0.154c-0.146-0.188-0.287-0.378-0.424-0.572l-0.463-0.551
				c-0.303-0.372-0.59-0.756-0.869-1.148c-0.295-0.379-0.627-0.732-0.932-1.105c-0.314-0.365-0.602-0.76-0.965-1.074
				c-0.109,0.008,0.086,0.19-0.109,0.123c0.404,0.457,0.906,0.686,1.186,1.186l-0.104-0.003c0.23,0.333,0.197-0.063,0.402,0.313
				c0.062,0.164-0.1,0.031-0.053,0.093c0.311,0.3,0.562,0.657,0.814,1.009c0.258,0.348,0.527,0.677,0.84,0.957
				c0.002,0.236,0.467,0.801,0.492,1.153c0.164,0.161,0.258,0.364,0.395,0.388c1.348,2.687,2.352,5.672,2.486,8.783
				c0.094,0.359,0.168,0.742,0.18,1.138c-0.012,0.396-0.047,0.806-0.092,1.222c-0.049,0.838-0.27,1.679-0.367,2.539
				c-0.014,0.009-0.023,0.005-0.031-0.008c0.018,0.575-0.18,1.377-0.404,2.014l-0.027,0.59c-1.471,3.779-3.748,7.402-7.045,9.902
				c-1.848,1.426-3.807,2.443-5.836,3.171c-2.031,0.731-4.125,1.212-6.395,1.515c0.006-0.031-0.031-0.047,0.084-0.064
				c-0.326,0.027-0.648,0.047-0.965,0.055c-0.316-0.019-0.627-0.037-0.936-0.055l-0.922-0.054c-0.303-0.041-0.607-0.076-0.918-0.101
				l0.01-0.029c-1.547-0.041-3.111-0.486-4.604-1.021c-1.484-0.581-2.891-1.285-4.213-1.995c-3.033-2.011-5.896-5.126-7.637-8.593
				l0.061-0.02c-1.469-2.752-1.836-5.809-1.963-8.846c0.006-0.787,0.1-1.582,0.104-2.389c0.045-0.803,0.182-1.605,0.262-2.422
				c0.145-0.803,0.354-1.597,0.551-2.391c0.289-0.762,0.582-1.523,0.949-2.236c0.572-0.822,1.035-1.861,1.607-2.846
				c0.564-0.983,1.207-1.93,1.969-2.499c2.936-2.46,5.861-4.679,9.486-6.104c1.727-0.422,3.465-0.777,5.229-0.904
				c1.756-0.141,3.537,0.002,5.186,0.499c1.668,0.073,3.227,1.155,4.861,1.827l-0.023-0.1c0.459,0.51,1.445,0.35,1.617,0.873
				l-0.066-0.021c0.195,0.332,0.893,0.062,0.961,0.354l0.094-0.045c0.369,0.201-0.012,0.111,0.242,0.311
				c0.105,0.058,0.133-0.116,0.309,0.074c-0.162,0.327,0.867,0.548,0.646,0.889c-0.18-0.134,0.186,0.334-0.268,0.102
				c0.088,0.118,0.646,0.509,0.707,0.34c0.16-0.104,0.475-0.06,0.229-0.431l-0.15,0.053c-0.033-0.189-0.047-0.117-0.025-0.226
				c-0.438-0.348-0.381-0.548-0.66-0.855c0,0.006,0.002,0.011-0.008,0.013c-0.309-0.044-0.572-0.331-0.75-0.46l-0.035-0.109
				c-0.031-0.202-0.705-0.084-0.42-0.219c-0.496-0.292-1.045-0.57-1.617-0.843c-0.559-0.3-1.156-0.549-1.754-0.784
				c-0.203,0.025-0.904-0.379-0.711-0.092c-0.227-0.309-1.127-0.646-1.469-0.746c0.02-0.016,0.039-0.034,0.09-0.01
				c-0.59-0.484-0.855,0.066-1.406-0.429c-0.074,0.11-0.357,0.027-0.674-0.058c-0.318-0.07-0.678-0.117-0.879,0
				C43.662,4,43.641,3.947,43.676,3.906C43.1,3.822,42.492,3.717,41.9,3.687c-0.59-0.042-1.162-0.124-1.656-0.091
				c-0.42,0.131-0.932,0.102-1.428,0.14c-0.494,0.04-0.977,0.09-1.314,0.278c-0.592,0.052-1.59,0.066-2.367,0.425l0.07-0.056
				c-0.918,0.232-2.033,0.652-2.559,1.065c-0.363-0.159-0.721,0.054-1.137,0.131c-0.518,0.39-1.674,0.935-2.42,1.56
				c-0.205-0.047-0.631,0.479-0.777,0.351c-2.037,1.804-4.424,4.044-6.205,6.358l0.01-0.043c-0.104,0.38-0.125,0.869-0.197,1.256
				c-0.033,0.023-0.061,0.004-0.018-0.063c-0.229,0.464-0.6,0.819-0.811,1.298c-0.027-0.018-0.027-0.018-0.016-0.105
				c-0.152,0.467-0.535,0.873-0.623,1.464l-0.061,0.011l-0.07,0.367c-0.057-0.029-0.141-0.076-0.047-0.253l-0.322,0.784l-0.232,0.82
				c-0.143,0.551-0.32,1.096-0.42,1.658c-0.166,1.133-0.365,2.266-0.342,3.42c-0.084,1.149,0.082,2.296,0.158,3.44
				c0.057,0.571,0.201,1.131,0.293,1.697c0.094,0.567,0.193,1.132,0.373,1.678l-0.105-0.146l0.355,0.825
				c-0.033,0.005-0.059-0.031-0.086-0.068c0.162,1.145,0.873,2.14,1.254,3.171c-0.031,0.009-0.152-0.119-0.123,0.039
				c0.541,0.64,0.441,1.266,0.953,1.446c0.004,0.042-0.053,0.106-0.119,0.048c1.268,1.896,2.701,3.755,4.418,5.284
				c1.611,1.023,3.211,2.479,5.125,3.078l-0.037,0.055c2.367,0.897,4.914,1.861,7.566,2.01c1.094,0.08,1.832,0.047,2.926-0.024
				l0.033,0.079c1.795-0.408,3.93-0.214,5.676-1.176l-0.09,0.148c0.229-0.255,1.127-0.324,0.91-0.569l0.346-0.05
				c0.531-0.424,1.08-0.621,1.664-0.867c0.598-0.211,1.203-0.514,1.822-1.027l-0.053,0.113c0.33-0.273,0.701-0.604,1-0.729
				c-0.035,0.036-0.004,0.04-0.076,0.112c1.258-0.555,2.209-1.773,3.156-2.797l-0.016,0.207c0.369-0.59,1.285-1.451,1.75-2.226
				l0.02,0.081l0.189-0.422l0.107,0.061C59.041,36.982,59.486,35.963,59.977,34.941z"/>
		</g>
		<g>
			<path d="M61.855,23.525l-0.004,0.014C61.865,23.572,61.863,23.555,61.855,23.525z"/>
		</g>
		<g>
			<path d="M53.262,7.693c0.039,0.039,0.07,0.073,0.104,0.107C53.369,7.773,53.297,7.725,53.262,7.693z"/>
		</g>
	</g>
	<g>
		<path d="M26.24,44.21c-0.551,0-1-0.45-0.99-1.011l0,0c0-0.549,0.45-0.989,1-0.989l0,0c0.55,0,1,0.45,1,1l0,0
			c-0.01,0.55-0.45,1-1,1l0,0H26.24z M29.25,43.16c-0.04-0.561,0.39-1.03,0.939-1.061l0,0c0.551-0.029,1.021,0.391,1.051,0.94l0,0
			c0.04,0.55-0.391,1.021-0.94,1.06l0,0c-0.02,0-0.04,0-0.06,0l0,0C29.72,44.1,29.28,43.689,29.25,43.16z M33.24,42.869
			c-0.07-0.549,0.329-1.049,0.88-1.109l0,0c0.54-0.061,1.04,0.33,1.1,0.88l0,0c0.07,0.55-0.33,1.05-0.88,1.11l0,0
			c-0.03,0-0.07,0-0.11,0l0,0C33.729,43.75,33.3,43.38,33.24,42.869z M37.2,42.359c-0.091-0.549,0.279-1.06,0.83-1.149l0,0
			c0,0,0,0-0.011,0l0,0c0.55-0.091,1.061,0.28,1.16,0.819l0,0c0.09,0.551-0.28,1.061-0.82,1.15h-0.01
			c-0.05,0.01-0.109,0.02-0.16,0.02l0,0C37.71,43.199,37.28,42.85,37.2,42.359z M41.14,41.65c-0.12-0.541,0.22-1.07,0.76-1.19l0,0
			c0.54-0.12,1.07,0.22,1.19,0.76l0,0c0.12,0.54-0.22,1.08-0.76,1.2l0,0c-0.07,0.01-0.141,0.02-0.21,0.02l0,0
			C41.66,42.439,41.24,42.119,41.14,41.65z M45.04,40.75c-0.15-0.53,0.17-1.08,0.7-1.23l0,0l0,0l0,0
			c0.529-0.14,1.079,0.17,1.229,0.711l0,0c0.14,0.529-0.17,1.08-0.71,1.219h0.01C46.18,41.48,46.09,41.49,46,41.49l0,0
			C45.56,41.49,45.16,41.199,45.04,40.75z M48.89,39.66c-0.17-0.53,0.11-1.09,0.641-1.26l0,0l0,0l0,0
			c0.52-0.17,1.09,0.109,1.26,0.64l0,0c0.17,0.521-0.12,1.09-0.641,1.26l0,0c-0.109,0.03-0.21,0.05-0.31,0.05l0,0
			C49.42,40.35,49.02,40.08,48.89,39.66z M52.67,38.369c-0.19-0.52,0.06-1.09,0.58-1.289l0,0l0,0l0,0c0.51-0.2,1.09,0.05,1.29,0.57
			l0,0c0.2,0.52-0.061,1.09-0.57,1.289l0,0c-0.12,0.051-0.24,0.07-0.36,0.07l0,0C53.2,39.01,52.83,38.77,52.67,38.369z M56.38,36.88
			c-0.23-0.511,0-1.101,0.5-1.33l0,0c0.5-0.229,1.1-0.01,1.32,0.49l0,0c0.229,0.51,0.01,1.1-0.49,1.329l0,0
			c-0.141,0.061-0.28,0.091-0.42,0.091l0,0C56.91,37.46,56.55,37.24,56.38,36.88z"/>
	</g>
	<g>
		<circle cx="30.316" cy="31.218" r="1.582"/>
	</g>
	<g>
		<circle cx="51.8" cy="26.07" r="1.583"/>
	</g>
	<g>
		<path d="M40.713,33.293c-1.082,0-2.177-0.281-3.173-0.871c-0.237-0.141-0.316-0.447-0.176-0.685
			c0.142-0.238,0.447-0.315,0.686-0.175c2.491,1.475,5.716,0.648,7.19-1.842c0.14-0.238,0.448-0.315,0.685-0.176
			c0.237,0.141,0.316,0.447,0.175,0.686C44.935,32.197,42.85,33.293,40.713,33.293z"/>
	</g>
</g>
</svg>
