<?xml version="1.0" encoding="utf-8"?>
<!-- Generator: Adobe Illustrator 16.0.3, SVG Export Plug-In . SVG Version: 6.00 Build 0)  -->
<!DOCTYPE svg PUBLIC "-//W3C//DTD SVG 1.1//EN" "http://www.w3.org/Graphics/SVG/1.1/DTD/svg11.dtd">
<svg version="1.1" id="Layer_1" xmlns="http://www.w3.org/2000/svg" xmlns:xlink="http://www.w3.org/1999/xlink" x="0px" y="0px"
	 width="37.25px" height="48px" viewBox="0 0 37.25 48" enable-background="new 0 0 37.25 48" xml:space="preserve">
<g>
	<g>
		<g>
			<polygon points="31.862,42.758 31.893,42.696 31.809,42.536 			"/>
		</g>
		<g>
			<path d="M31.677,41.708c-0.017,0.031-0.042,0.017-0.058,0.048l0.24,0.616C31.997,42.097,31.585,41.89,31.677,41.708z"/>
		</g>
		<g>
			<path d="M31.701,41.527c0.057-0.239-0.056-0.338-0.096-0.396C31.693,41.217,31.578,41.578,31.701,41.527z"/>
		</g>
		<g>
			<path d="M31.69,20.498c0.002,0.022,0.006,0.052,0.008,0.074C31.702,20.535,31.698,20.51,31.69,20.498z"/>
		</g>
		<g>
			<path d="M31.318,15.01l-0.091-0.058c0.16,1.024-0.006,2.179,0.06,3.261l-0.03-0.074c-0.04,2.748,0.104,5.282,0.168,8.008
				c-0.011-0.043-0.037-0.057-0.048-0.101c0.031,0.132,0.089,0.277,0.08,0.424c-0.02,0.039-0.041-0.041-0.051-0.089
				c-0.15,0.575,0.093,1.692-0.023,2.051c0.014,0.161,0.076,0.233,0.124,0.143c0.034,2.134,0.057,4.418,0.17,6.591
				c-0.021,0.104-0.063,0.123-0.113,0.095c0.238,1.857,0.138,3.803,0.093,5.704c0.065,0.073,0.069-0.194,0.135-0.007
				c0.08-0.61-0.153-1.119-0.037-1.673l0.061,0.071c0.042-0.403-0.153-0.082-0.073-0.501c0.052-0.163,0.079,0.042,0.083-0.034
				c-0.023-0.855,0.034-1.751-0.114-2.558c0.135-0.2,0.007-0.922,0.136-1.238c-0.052-0.222-0.038-0.443-0.126-0.529
				c0.076-2.997-0.046-6.063-0.029-9.135c-0.254-1.439,0.057-3.16-0.025-4.867c0.009-0.012,0.019-0.009,0.025,0.002
				c-0.062-0.556-0.091-1.368-0.057-2.031l-0.108-0.563c0.219-4.009,0.118-8.047,0.152-12.167c-0.079-1.281-0.966-2.393-2.09-2.874
				c-0.557-0.235-1.236-0.289-1.742-0.283c-0.541-0.007-1.079-0.014-1.616-0.021c-2.148-0.016-4.282,0.017-6.526,0.182
				c0.005-0.025-0.031-0.039,0.085-0.049c-1.295,0.049-2.476-0.046-3.697,0.005l0.003-0.026c-1.515,0.104-3.091,0.094-4.653,0.085
				c-0.39-0.001-0.78-0.003-1.167-0.006C9.889,2.746,9.502,2.745,9.092,2.807C8.293,2.941,7.579,3.403,7.15,4.018
				c-0.16,0.166-0.277,0.364-0.382,0.571C6.638,4.786,6.766,5.018,6.69,5.24c-0.12,0.457,0.06,0.939,0.06,1.4
				c0,0.936,0,1.889,0,2.849c0,1.919-0.14,3.865-0.122,5.746L6.49,15.226c0.101,3.01-0.221,5.919-0.146,8.922
				c-0.123,3.088,0.258,6.353,0.095,9.468c-0.256,1.926,0.266,4.459,0.001,6.27c-0.099,0.929-0.165,1.852-0.195,2.771
				c-0.053,0.972,0.415,1.952,1.17,2.549c0.097,0.074,0.186,0.153,0.287,0.22l0.321,0.164c0.207,0.127,0.448,0.169,0.677,0.234
				c0.47,0.101,0.945,0.076,1.398,0.048c0.919-0.055,1.842-0.107,2.771-0.162c3.43,0.147,6.856-0.204,10.178,0.088
				c1.574-0.179,3.312,0.234,5.063,0.186l-0.062-0.063c0.155,0.056,0.329,0.038,0.5,0.012c0.172-0.026,0.339-0.071,0.485-0.158
				c0.146-0.079,0.287-0.137,0.412-0.19c0.121-0.066,0.236-0.1,0.361-0.086l-0.054,0.043c0.093-0.008,0.175-0.057,0.246-0.12
				c0.062-0.077,0.109-0.172,0.152-0.261c0.083-0.18,0.153-0.319,0.271-0.345l-0.021-0.088c0.229-0.311,0.09,0.018,0.307-0.2
				c0.068-0.094-0.077-0.105,0.072-0.287c0.128,0.047,0.269-0.166,0.326-0.404c0.061-0.237,0.129-0.461,0.287-0.446
				c-0.048,0.231,0.198-0.344,0.149,0.197c0.104-0.137,0.128-0.901-0.009-0.827c-0.152-0.062-0.269-0.318-0.403,0.081l0.101,0.084
				c-0.121,0.126-0.064,0.097-0.15,0.137c-0.019,0.252-0.105,0.377-0.192,0.476c-0.091,0.099-0.151,0.184-0.257,0.317
				c0.005-0.001,0.009-0.004,0.011,0.003c0.011,0.261-0.215,0.514-0.361,0.624l-0.092,0.016c-0.131,0.009-0.222,0.537-0.253,0.288
				c-0.327,0.345-0.817,0.701-1.332,0.787l-0.398,0.18H27.75h-0.917c-0.17,0-0.933-0.145-0.667,0.014
				c-0.305-0.18-1.21-0.296-1.547-0.291c0.012-0.017,0.026-0.068,0.079-0.062c-0.651-0.234-0.774,0.198-1.386-0.089
				c-0.098,0.202-1.112-0.076-1.459,0.16c-0.075-0.045-0.101-0.088-0.072-0.125c-1.102-0.006-2.32-0.086-3.253-0.097
				c-0.796,0.175-1.928-0.084-2.614,0.158c-0.568-0.053-1.486-0.157-2.279-0.061l0.077-0.032c-0.894,0.014-2.011,0.022-2.625,0.176
				c-0.264-0.235-0.65-0.189-1.036-0.264c-0.149,0.025-0.337,0.044-0.548,0.057c-0.175-0.013-0.375-0.007-0.579-0.039
				c-0.397-0.097-0.833-0.25-1.15-0.493c-0.042-0.129-0.48-0.447-0.382-0.569c-0.366-0.404-0.593-0.955-0.628-1.602
				c-0.027-0.698-0.034-1.416-0.023-2.142c0.021-1.447,0.107-2.917,0.225-4.28l0.011,0.04c-0.085-0.354-0.275-0.762-0.385-1.122
				c0.014-0.034,0.04-0.031,0.039,0.044c-0.027-0.498,0.128-0.963,0.101-1.46c0.025,0.005,0.025,0.005,0.05,0.086
				c-0.068-0.468,0.128-0.965,0.007-1.517l0.042-0.03l-0.057-0.351c0.051,0.01,0.129,0.023,0.112,0.211
				c0.061-4.274-0.2-8.686-0.15-13.073l0.049,0.161l-0.085-0.851c0.025,0.005,0.038,0.045,0.049,0.086
				c0.091-1.083-0.053-2.208-0.028-3.264c0.025,0.004,0.075,0.164,0.104,0.017c-0.141-0.782,0.187-1.255-0.107-1.647
				c0.014-0.037,0.079-0.061,0.103,0.019c-0.092-2.176-0.082-4.409-0.029-6.599C6.726,6.461,6.677,5.985,6.724,5.548
				C6.742,5.324,6.835,5.11,6.892,4.89c0.119-0.196,0.197-0.419,0.35-0.595c0.562-0.74,1.444-1.19,2.371-1.291l-0.01,0.053
				c2.455-0.18,5.058,0.024,7.602-0.007c1.056,0.024,1.769-0.037,2.833-0.038l0.025,0.066c1.785-0.248,3.754,0.234,5.617-0.038
				L25.551,3.13c0.291-0.138,1.129,0.052,1.02-0.186l0.327,0.073c1.246-0.278,2.406-0.075,3.626,0.877
				c0.004-0.005-0.115-0.027-0.115-0.027c0.168,0.119,0.309,0.296,0.453,0.45c0.12,0.172,0.202,0.357,0.253,0.5
				c-0.031-0.039-0.036-0.012-0.095-0.091c0.188,0.622,0.252,1.234,0.258,1.945c0.031,0.692,0.089,1.392,0.083,2.074l-0.104-0.156
				c0.122,0.66,0.005,1.869,0.06,2.735l-0.05-0.054l0.069,0.439l-0.101,0.011C31.225,12.848,31.309,13.91,31.318,15.01z"/>
		</g>
		<g>
			<path d="M31.406,26.383l0.003-0.012C31.402,26.337,31.402,26.354,31.406,26.383z"/>
		</g>
		<g>
			<path d="M30.558,43.946c0.027-0.036,0.052-0.063,0.075-0.094C30.609,43.853,30.578,43.915,30.558,43.946z"/>
		</g>
	</g>
	<g>
		<g>
			<polygon points="31.398,6.344 31.388,6.312 31.354,6.397 			"/>
		</g>
		<g>
			<path d="M31.197,6.531c0.006,0.016,0.003,0.041,0.009,0.055l0.118-0.24C31.272,6.209,31.231,6.622,31.197,6.531z"/>
		</g>
		<g>
			<path d="M31.163,6.506c-0.046-0.056-0.064,0.057-0.076,0.096C31.103,6.514,31.173,6.628,31.163,6.506z"/>
		</g>
		<g>
			<path d="M27.14,6.554c0.004-0.001,0.01-0.004,0.015-0.007C27.146,6.542,27.142,6.547,27.14,6.554z"/>
		</g>
		<g>
			<path d="M25.733,6.935L25.9,7.026c0.195-0.162,0.506,0.003,0.713-0.067l0.03,0.032c0.525,0.037,1.033-0.114,1.555-0.181
				c-0.009,0.01,0,0.036-0.01,0.047c0.025-0.031,0.061-0.089,0.089-0.082c0.007,0.021-0.006,0.042-0.017,0.052
				c0.11,0.149,0.326-0.095,0.394,0.021c0.031-0.016,0.048-0.078,0.03-0.125c0.409-0.037,0.845-0.064,1.262-0.181
				c0.019,0.021,0.022,0.061,0.017,0.112c0.356-0.242,0.728-0.144,1.093-0.104c0.014-0.063-0.037-0.068-0.002-0.133
				c-0.117-0.08-0.214,0.156-0.32,0.039l0.015-0.062c-0.078-0.039-0.017,0.155-0.097,0.076c-0.031-0.052,0.009-0.079-0.006-0.083
				c-0.164,0.025-0.336-0.031-0.49,0.118c-0.037-0.133-0.176-0.004-0.236-0.132c-0.042,0.053-0.085,0.039-0.1,0.127
				c-0.576-0.072-1.161,0.057-1.75,0.045c-0.274,0.257-0.604-0.052-0.93,0.034c-0.003-0.009-0.003-0.019,0-0.025
				c-0.107,0.062-0.262,0.093-0.39,0.06l-0.107,0.109c-0.764-0.226-1.545-0.07-2.321-0.165c-0.883-0.066-1.654-0.254-2.515,0.083
				c0.002-0.024-0.188-0.038-0.165-0.048c-0.248,0.051-0.892-0.042-0.892,0.011V6.579c-1,0.211-0.738-0.031-1.297,0.197
				c-0.68-0.025-1.703-0.003-1.703,0.062V6.785c-1,0.107-1.414-0.166-1.988-0.084c-0.591-0.118-1.357,0.29-1.952,0.133
				c-0.369-0.252-0.925,0.286-1.271,0.024c-0.711-0.394-1.438-0.143-2.148,0.091C9.734,6.807,9.06,7.165,8.425,6.879
				C8.125,7.061,7.784,6.65,7.448,6.702l0.007,0.063C7.336,6.573,7.185,7.034,7.11,6.749l0.012-0.013
				C7.059,6.591,6.974,7.077,6.935,6.904L6.924,6.976c-0.078,0.021-0.01-0.081-0.069-0.11C6.833,6.875,6.846,6.997,6.8,6.956
				C6.79,6.662,6.611,7.018,6.606,6.689c0.042,0-0.065-0.128,0.028-0.196C6.608,6.458,6.479,6.475,6.491,6.614
				C6.479,6.763,6.428,6.892,6.506,7.007l0.017-0.108c0.026,0.108,0.024,0.054,0.034,0.135C6.659,7.048,6.75,7.206,6.75,7.271
				c0-0.003,0-0.006,0-0.012c0-0.129,0.115-0.052,0.155-0.033l0.014,0.06c0.023,0.126,0.116-0.245,0.083-0.03
				c0.209-0.053,0.447-0.05,0.681-0.052c0.033-0.081,0.178,0.008,0.127-0.15C7.87,7.234,8.042,7.28,8.107,7.272
				C8.104,7.29,8.102,7.309,8.09,7.302c0.125,0.234,0.15-0.216,0.267,0.071C8.375,7.171,8.569,7.438,8.636,7.2
				c0.014,0.045,0.02,0.085,0.014,0.122C8.861,7.326,9.093,7.4,9.271,7.409c0.154-0.176,0.369,0.081,0.5-0.163
				C9.88,7.298,10.056,7.4,10.207,7.302l-0.013,0.03c0.171-0.014,0.384-0.026,0.501-0.18c0.05,0.234,0.125,0.188,0.198,0.263
				c0.114-0.108,0.345-0.076,0.52-0.174c0.026,0.108,0.144-0.045,0.152,0.111c0.489-0.302,1.093-0.194,1.614,0.035L13.171,7.4
				c0.066-0.086,0.146-0.277,0.214-0.387c0.007,0.014,0.006,0.04-0.008,0.04c0.095-0.03,0.185,0.125,0.28,0.096
				c-0.001,0.026-0.001,0.026-0.017,0.051c0.09-0.069,0.185,0.126,0.291,0.004l0.005,0.042l0.067-0.058
				c-0.001,0.051-0.004,0.129-0.04,0.113c0.817,0.053,1.662-0.214,2.501-0.175l-0.031,0.05l0.163-0.088
				c-0.001,0.027-0.009,0.039-0.017,0.051c0.206,0.087,0.423-0.058,0.624-0.035c0,0.025-0.031,0.075-0.003,0.104
				c0.149-0.142,0.24,0.185,0.315-0.109c0.007,0.013,0.011,0.08-0.003,0.103c0.416-0.096,0.781-0.09,1.2-0.041
				c0.349-0.265,0.039-0.024,1.039-0.233v0.053c0-0.186,1.031,0.015,1.518-0.021c0.201,0.021,0.369-0.041,0.572-0.043l0.019,0.066
				c0.344-0.251,0.728,0.228,1.084-0.049l-0.021,0.09c0.055-0.139,0.216,0.05,0.196-0.189l0.064,0.073
				c0.243-0.314,0.44,0.147,0.737-0.058l-0.018,0.057c0.079-0.043,0.171-0.079,0.229-0.026c-0.009,0.009-0.004,0.025-0.023,0.04
				c0.247,0.225,0.523-0.022,0.783-0.014L24.86,7.01c0.127-0.124,0.357-0.008,0.523-0.063L25.02,6.996l-0.27-0.07v0.1
				C25.75,7.033,25.523,6.947,25.733,6.935z"/>
		</g>
		<g>
			<path d="M28.265,6.828l-0.003-0.004C28.256,6.832,28.26,6.831,28.265,6.828z"/>
		</g>
		<g>
			<path d="M6.768,7.292C6.758,7.285,6.75,7.279,6.741,7.271C6.743,7.292,6.759,7.287,6.768,7.292z"/>
		</g>
	</g>
	<g>
		<g>
			<polygon points="31.329,37.521 31.316,37.49 31.286,37.574 			"/>
		</g>
		<g>
			<path d="M31.126,37.709c0.008,0.014,0.004,0.039,0.011,0.056l0.118-0.24C31.203,37.389,31.162,37.799,31.126,37.709z"/>
		</g>
		<g>
			<path d="M31.093,37.683c-0.046-0.056-0.065,0.059-0.074,0.096C31.033,37.691,31.103,37.806,31.093,37.683z"/>
		</g>
		<g>
			<path d="M27.069,37.73c0.005,0,0.011-0.003,0.015-0.008C27.077,37.721,27.072,37.723,27.069,37.73z"/>
		</g>
		<g>
			<path d="M26.02,38.112l-0.012,0.091c0.196-0.16,0.416,0.005,0.624-0.066l-0.014,0.031c0.524,0.037,1.01-0.113,1.532-0.181
				c-0.009,0.011-0.012,0.037-0.02,0.046c0.025-0.029,0.054-0.088,0.081-0.081c0.009,0.021-0.008,0.043-0.018,0.052
				c0.109,0.149,0.324-0.095,0.393,0.021c0.031-0.016,0.046-0.078,0.028-0.126c0.407-0.037,0.845-0.064,1.261-0.179
				c0.02,0.018,0.023,0.06,0.018,0.111c0.356-0.242,0.729-0.145,1.092-0.104c0.013-0.063-0.037-0.067-0.002-0.134
				c-0.116-0.08-0.214,0.155-0.319,0.039l0.014-0.062c-0.076-0.039-0.016,0.156-0.095,0.077c-0.033-0.052,0.007-0.079-0.007-0.084
				c-0.164,0.025-0.336-0.03-0.49,0.118c-0.038-0.134-0.177-0.004-0.235-0.132c-0.043,0.052-0.086,0.038-0.103,0.128
				c-0.573-0.073-1.16,0.056-1.747,0.044c-0.276,0.258-0.605-0.051-0.932,0.035c-0.002-0.01-0.002-0.02,0-0.027
				c-0.106,0.064-0.261,0.093-0.389,0.061l-0.107,0.108c-0.765-0.226-1.546-0.069-2.321-0.163c-0.882-0.067-1.654-0.255-2.516,0.084
				c0.002-0.025-0.153-0.04-0.13-0.05c-0.247,0.052-0.856-0.043-0.856,0.01v-0.025c-1,0.214-1.057-0.03-1.615,0.197
				c-0.68-0.023-1.375-0.002-2.095,0.062l0.039-0.052c-0.577,0.106-1.114-0.165-1.688-0.084c-0.591-0.118-1.207,0.29-1.802,0.133
				c-0.369-0.251-0.85,0.285-1.194,0.025c-0.712-0.395-1.401-0.145-2.112,0.091c-0.656-0.144-1.311,0.216-1.945-0.072
				c-0.301,0.183-0.634-0.228-0.968-0.174l0.011,0.062c-0.119-0.193-0.268,0.27-0.342-0.017l0.013-0.014
				c-0.063-0.146-0.148,0.341-0.188,0.169l-0.01,0.07c-0.077,0.021-0.009-0.08-0.068-0.109c-0.023,0.01-0.009,0.13-0.056,0.088
				c-0.009-0.292-0.188,0.064-0.194-0.265c0.043,0-0.065-0.128,0.03-0.197c-0.027-0.032-0.157-0.019-0.145,0.122
				c-0.012,0.149-0.062,0.277,0.017,0.393l0.015-0.108c0.027,0.109,0.06,0.055,0.069,0.135c0.103,0.017,0.229,0.172,0.229,0.237
				c0-0.003,0-0.005,0-0.01c0-0.13,0.081-0.053,0.121-0.034l-0.005,0.059c0.024,0.127,0.108-0.245,0.076-0.029
				c0.209-0.053,0.443-0.051,0.676-0.053c0.034-0.081,0.177,0.009,0.125-0.148c0.059,0.181,0.23,0.225,0.294,0.219
				c-0.002,0.017-0.006,0.035-0.016,0.029c0.125,0.234,0.149-0.216,0.266,0.071c0.019-0.204,0.212,0.063,0.279-0.174
				c0.014,0.045,0.02,0.085,0.014,0.121c0.211,0.006,0.443,0.08,0.622,0.088c0.153-0.176,0.369,0.082,0.5-0.162
				c0.109,0.052,0.284,0.154,0.436,0.056l-0.015,0.03c0.171-0.014,0.384-0.026,0.502-0.179c0.05,0.233,0.124,0.187,0.198,0.263
				c0.114-0.108,0.345-0.077,0.519-0.175c0.027,0.108,0.145-0.046,0.152,0.111c0.49-0.302,1.093-0.194,1.614,0.036L13.1,38.578
				c0.068-0.088,0.146-0.277,0.216-0.389c0.007,0.014,0.005,0.04-0.008,0.039c0.095-0.027,0.184,0.126,0.279,0.097
				c-0.001,0.026-0.001,0.026-0.017,0.052c0.089-0.07,0.184,0.125,0.29,0.003l0.005,0.042l0.068-0.059
				c-0.001,0.054-0.004,0.131-0.041,0.114c0.817,0.053,1.663-0.215,2.501-0.175l-0.031,0.05l0.164-0.089
				c-0.002,0.027-0.009,0.039-0.017,0.051c0.208,0.09,0.423-0.057,0.625-0.035c-0.001,0.026-0.032,0.077-0.003,0.105
				c0.149-0.143,0.24,0.185,0.315-0.109c0.007,0.014,0.011,0.081-0.004,0.104c0.416-0.097,0.843-0.091,1.262-0.041
				c0.35-0.266,0.74-0.024,1.103-0.234l-0.002,0.052c0.47-0.185,0.968,0.016,1.453-0.021c0.202,0.022,0.339-0.04,0.542-0.042
				l0.006,0.064c0.343-0.25,0.718,0.229,1.075-0.048l-0.025,0.09c0.056-0.138,0.216,0.05,0.195-0.188l0.063,0.071
				c0.243-0.315,0.44,0.146,0.737-0.058l-0.02,0.058c0.079-0.045,0.171-0.078,0.229-0.027c-0.008,0.008-0.005,0.024-0.023,0.039
				c0.247,0.226,0.522-0.021,0.782-0.012l-0.027,0.104c0.125-0.124,0.356-0.008,0.522-0.062l-0.011,0.049l0.084-0.069l0.002,0.1
				C25.605,38.21,25.808,38.124,26.02,38.112z"/>
		</g>
		<g>
			<path d="M28.194,38.004L28.192,38C28.186,38.01,28.188,38.01,28.194,38.004z"/>
		</g>
		<g>
			<path d="M6.698,38.468c-0.011-0.006-0.019-0.012-0.028-0.021C6.673,38.468,6.689,38.465,6.698,38.468z"/>
		</g>
	</g>
	<g>
		<path d="M21.546,41.52c-0.001,0.635-0.516,1.146-1.149,1.146c-0.632-0.004-1.145-0.517-1.143-1.15
			c0.002-0.633,0.517-1.145,1.149-1.144C21.036,40.372,21.547,40.888,21.546,41.52z"/>
	</g>
</g>
</svg>
