<?xml version="1.0" encoding="utf-8"?>
<!-- Generator: Adobe Illustrator 16.0.3, SVG Export Plug-In . SVG Version: 6.00 Build 0)  -->
<!DOCTYPE svg PUBLIC "-//W3C//DTD SVG 1.1//EN" "http://www.w3.org/Graphics/SVG/1.1/DTD/svg11.dtd">
<svg version="1.1" id="Layer_1" xmlns="http://www.w3.org/2000/svg" xmlns:xlink="http://www.w3.org/1999/xlink" x="0px" y="0px"
	 width="58.134px" height="50.271px" viewBox="0 0 58.134 50.271" enable-background="new 0 0 58.134 50.271" xml:space="preserve">
<g>
	<g>
		<g>
			<polygon points="58.101,6.357 58.134,6.338 58.034,6.287 			"/>
		</g>
		<g>
			<path d="M57.856,6.033c-0.016,0.01-0.045,0.008-0.062,0.018l0.292,0.185C58.233,6.141,57.759,6.093,57.856,6.033z"/>
		</g>
		<g>
			<path d="M57.881,5.977c0.056-0.079-0.077-0.102-0.122-0.115C57.862,5.88,57.743,6,57.881,5.977z"/>
		</g>
		<g>
			<path d="M54.481,0.746c0.008,0.002,0.018,0.004,0.026,0.004C54.499,0.739,54.49,0.739,54.481,0.746z"/>
		</g>
		<g>
			<path d="M52.811,0.556L52.772,0.65c0.324-0.09,0.589,0.187,0.909,0.202L53.647,0.88c0.352,0.169,0.684,0.345,1.046,0.477
				c0.34,0.17,0.659,0.388,1.002,0.609c-0.018,0-0.042,0.02-0.06,0.02c0.053-0.001,0.132-0.021,0.16,0.014
				c-0.007,0.023-0.043,0.025-0.061,0.023c-0.007,0.238,0.398,0.309,0.37,0.478c0.045,0.023,0.112-0.004,0.138-0.059
				c0.226,0.229,0.453,0.474,0.619,0.769c0.171,0.287,0.422,0.545,0.57,0.85c-0.014,0.038-0.055,0.061-0.111,0.071
				c0.213,0.222,0.343,0.499,0.431,0.784c0.087,0.287,0.042,0.599,0.06,0.891c0.075,0.017,0.07-0.066,0.15-0.015
				c0.07-0.205-0.21-0.329-0.099-0.52l0.07,0.01c0.031-0.135-0.175,0.005-0.101-0.141c0.053-0.063,0.088-0.004,0.092-0.03
				c-0.075-0.258-0.122-0.548-0.353-0.739c0.126-0.107-0.08-0.275,0.025-0.424c-0.077-0.045-0.085-0.118-0.185-0.104
				C57.22,3.42,57.009,2.983,56.71,2.615l-0.482-0.527l-0.235-0.266l-0.276-0.228c-0.521-0.06-0.702-0.681-1.248-0.823
				c0.001-0.011,0.008-0.021,0.014-0.025c-0.185-0.02-0.413-0.106-0.579-0.232l-0.207,0.062c-0.264-0.148-0.546-0.274-0.835-0.385
				c-0.292-0.107-0.608-0.104-0.914-0.148L51.481,0c-0.155,0-0.311,0.027-0.466,0.038L50.082,0.11c-1.382,0.227-2.7,0.821-3.347,2.1
				c-0.02-0.02-0.039-0.021-0.025-0.057c-0.188,0.354-0.56,0.532-0.662,0.912L46.024,3.05c-0.109,0.472-0.383,0.86-0.493,1.325
				c-0.074,0.225-0.145,0.449-0.197,0.673c-0.031,0.228-0.008,0.461,0.03,0.682c-0.188,1.042,0.096,2.266,0.617,3.225l-0.054,0.023
				c0.278,0.354,0.393,0.786,0.665,1.135c0.119,0.185,0.24,0.373,0.372,0.553c0.13,0.184,0.324,0.306,0.506,0.438
				c0.16,0.168,0.338,0.329,0.545,0.442c0.22,0.094,0.448,0.174,0.673,0.251c0.434,0.194,0.915,0.194,1.318,0.431
				c0.229,0.252,0.598,0.148,0.915,0.117c0.164-0.021,0.321-0.047,0.47-0.042c0.15-0.007,0.29-0.019,0.426,0.046
				c0.275,0.084,0.561,0.121,0.841,0.124c0.273-0.035,0.538-0.131,0.793-0.232c0.128-0.054,0.254-0.111,0.375-0.172
				c0.116-0.076,0.223-0.171,0.329-0.26c0.211-0.182,0.415-0.365,0.607-0.551c0.211-0.124,0.405-0.278,0.588-0.441l0.267-0.252
				c0.075-0.096,0.141-0.202,0.21-0.301c0.139-0.2,0.277-0.394,0.438-0.571c0.144-0.188,0.271-0.389,0.461-0.559
				c0.062-0.461,0.609-0.778,0.716-1.312l-0.075,0.001c0.283-0.133-0.206-0.456,0.118-0.515l0.014,0.022
				c0.174-0.078-0.361-0.278-0.162-0.31l-0.079-0.024c-0.011-0.116,0.093-0.004,0.135-0.089c-0.006-0.035-0.146-0.026-0.093-0.092
				c0.333,0.008-0.043-0.284,0.331-0.278c-0.007,0.066,0.154-0.102,0.217,0.052c0.044-0.042,0.044-0.252-0.116-0.232
				c-0.169-0.018-0.312-0.093-0.446,0.024l0.12,0.025c-0.128,0.038-0.064,0.028-0.157,0.042c-0.032,0.149-0.213,0.162-0.297,0.26
				c0.004-0.001,0.008-0.003,0.014,0c0.139,0.08,0.042,0.174,0.017,0.227L56.911,6.95c-0.146,0.016,0.258,0.197,0.021,0.123
				c0.012,0.148,0.027,0.312-0.005,0.471c-0.046,0.157-0.094,0.316-0.141,0.475c0.075,0.072-0.083,0.24,0.108,0.228
				c-0.223,0.015-0.326,0.23-0.363,0.312c-0.017-0.011-0.035-0.021-0.021-0.032c-0.325,0.041,0.12,0.286-0.248,0.287
				c0.19,0.13-0.201,0.221-0.014,0.438c-0.053-0.009-0.096-0.027-0.126-0.055c-0.119,0.271-0.432,0.442-0.581,0.628
				c0.015,0.297-0.373,0.333-0.338,0.632c-0.161,0.055-0.416,0.115-0.51,0.339l-0.005-0.04c-0.158,0.187-0.427,0.309-0.485,0.546
				c-0.191-0.197-0.254-0.103-0.381-0.13c-0.041,0.093-0.136,0.17-0.241,0.252c-0.116,0.056-0.243,0.114-0.343,0.204
				c-0.074-0.105-0.178,0.108-0.24-0.059c-0.138,0.128-0.296,0.255-0.475,0.321c-0.183,0.05-0.379,0.079-0.576,0.09
				c-0.199,0.002-0.398,0.02-0.59-0.036c-0.191-0.064-0.377-0.14-0.545-0.222l0.01-0.013c-0.102,0.09-0.24,0.292-0.365,0.406
				c-0.008-0.018,0-0.046,0.02-0.043c-0.146,0.026-0.238-0.167-0.372-0.185c0.008-0.03,0.008-0.03,0.036-0.05
				c-0.144,0.037-0.212-0.215-0.393-0.129l0.007-0.047l-0.111,0.035c0.021-0.055,0.052-0.138,0.095-0.104
				c-0.136-0.049-0.271-0.091-0.409-0.131c-0.133-0.051-0.256-0.125-0.39-0.182c-0.252-0.136-0.559-0.199-0.795-0.379l-0.749-0.508
				c-0.205-0.219-0.408-0.448-0.594-0.688l0.074,0.002l-0.23-0.125c0.024-0.015,0.044-0.014,0.062-0.014
				c-0.062-0.311-0.348-0.499-0.469-0.771c0.025-0.011,0.099,0.003,0.108-0.047c-0.262-0.12,0.05-0.385-0.289-0.366
				c0.011-0.016,0.079-0.048,0.111-0.035c-0.139-0.264-0.256-0.55-0.353-0.84c-0.033-0.304-0.05-0.61-0.053-0.911
				c-0.202-0.244-0.146-0.522-0.127-0.795c0.046-0.272,0.025-0.553,0.012-0.836l0.058,0.017c0.01-0.355,0.098-0.722,0.265-1.049
				c0.204-0.31,0.406-0.617,0.578-0.938c0.211-0.219,0.284-0.419,0.479-0.659l0.06,0.045c0.042-0.311,0.319-0.428,0.562-0.554
				c0.26-0.114,0.463-0.28,0.626-0.52l0.022,0.104c-0.01-0.173,0.311-0.105,0.146-0.323l0.124,0.025
				c0.078-0.244,0.252-0.292,0.432-0.324c0.182-0.032,0.391,0.004,0.566-0.18l-0.007,0.069c0.098-0.083,0.224-0.163,0.323-0.132
				c-0.011,0.014,0,0.029-0.023,0.054c0.406,0.102,0.756-0.173,1.159-0.211l-0.034,0.122c0.178-0.162,0.529-0.074,0.775-0.088
				l-0.018,0.055l0.129-0.065l-0.004,0.112C52.18,0.585,52.504,0.468,52.811,0.556z"/>
		</g>
		<g>
			<path d="M55.735,2.022l-0.001-0.004C55.721,2.019,55.725,2.021,55.735,2.022z"/>
		</g>
		<g>
			<path d="M56.925,6.743c0.007-0.014,0.016-0.024,0.025-0.034C56.928,6.71,56.931,6.732,56.925,6.743z"/>
		</g>
	</g>
	<g>
		<g>
			<polygon points="0,50.269 0.048,50.271 0.036,50.146 			"/>
		</g>
		<g>
			<path d="M0.227,49.741c-0.023-0.001-0.038-0.026-0.062-0.028l-0.028,0.415C0.345,50.138,0.088,49.733,0.227,49.741z"/>
		</g>
		<g>
			<path d="M0.312,49.696c0.13-0.04,0.075-0.167,0.063-0.218C0.417,49.578,0.194,49.616,0.312,49.696z"/>
		</g>
		<g>
			<path d="M7.814,42.102c-0.007,0.01-0.015,0.022-0.021,0.033C7.81,42.125,7.816,42.112,7.814,42.102z"/>
		</g>
		<g>
			<path d="M9.476,39.824l-0.197-0.093c-0.238,0.497-1.263,0.78-1.263,1.225v-0.051c-1,0.958-1.657,1.988-2.579,3.021
				c0.006-0.023,0.063-0.049,0.07-0.074c-0.021,0.073,0.01,0.171-0.05,0.218c-0.029-0.001,0-0.048,0.009-0.072
				c-0.325,0.087-0.521,0.684-0.743,0.721c-0.044,0.069-0.017,0.145,0.053,0.151c-0.735,0.796-1.528,1.639-2.214,2.512
				c-0.054,0.021-0.094-0.004-0.124-0.056c-0.473,0.86-1.248,1.482-1.962,2.132c0.024,0.078,0.124-0.015,0.11,0.105
				c0.281-0.156,0.275-0.527,0.568-0.632l0.023,0.074c0.176-0.114-0.095-0.153,0.119-0.24c0.101-0.019,0.047,0.077,0.079,0.054
				c0.287-0.328,0.651-0.604,0.822-1.014c0.179,0.035,0.334-0.327,0.55-0.339c0.038-0.121,0.128-0.19,0.088-0.292
				c1.134-1.019,2.13-2.223,3.24-3.318c0.31-0.722,1.174-1.095,1.717-1.776c0.013,0.004,0.02,0.012,0.021,0.021
				c0.148-0.25,0.416-0.565,0.68-0.778l0.115-0.289c1.613-1.254,2.952-2.846,4.484-4.229c1.707-1.604,3.306-2.904,4.646-4.789
				c0.019,0.021,0.042,0.02,0.009,0.07c0.423-0.508,0.922-0.856,1.317-1.337l0.019,0.021c0.916-1.257,2.286-2.24,3.15-3.472
				c1.294-1.257,2.719-2.719,4.015-4.121l0.039,0.044c0.994-1.166,2.254-1.993,3.267-3.138c1.203-1.016,2.046-2.515,3.289-3.509
				c0.894-0.49,1.37-1.83,2.229-2.272c1.649-1.021,2.741-2.518,3.889-4.04c1.343-1.12,2.285-2.638,3.706-3.601
				c0.418-0.712,1.371-1.009,1.957-1.68l-0.074-0.027c0.38-0.072,0.288-0.719,0.658-0.631l-0.014,0.034
				c0.236-0.003,0.005-0.551,0.215-0.485l-0.038-0.077c0.129-0.162,0.083,0.048,0.218-0.041c0.033-0.048-0.089-0.121,0.031-0.176
				c0.253,0.217,0.304-0.404,0.577-0.15c-0.079,0.079,0.226-0.022,0.103,0.211c0.078-0.024,0.309-0.279,0.175-0.369
				c-0.098-0.14-0.107-0.338-0.347-0.282l0.057,0.115c-0.136-0.037-0.081-0.005-0.164-0.052c-0.203,0.181-0.355,0.081-0.544,0.167
				c0.004,0.001,0.007,0.002,0.01,0.008c0.009,0.198-0.184,0.268-0.273,0.328l-0.078-0.02C44.99,3.48,45.115,3.952,45,3.721
				c-0.349,0.434-0.799,0.881-1.234,1.321C43.77,5.168,43.424,5.37,43.646,5.4c-0.255-0.035-0.616,0.255-0.73,0.381
				c-0.01-0.019-0.021-0.038,0.003-0.052c-0.421,0.047-0.104,0.451-0.553,0.442c0.128,0.195-0.45,0.347-0.385,0.662
				c-0.062-0.01-0.104-0.032-0.123-0.072c-0.398,0.393-0.895,0.772-1.236,1.099c-0.145,0.428-0.758,0.628-0.808,1.07
				c-0.244,0.161-0.655,0.41-0.861,0.772l0.003-0.051c-0.309,0.333-0.699,0.743-0.797,1.087c-0.282-0.094-0.384,0.083-0.583,0.162
				c-0.127,0.301-0.585,0.708-0.834,1.115c-0.136-0.037-0.232,0.307-0.376,0.196c-0.671,1.159-1.89,2.206-3.051,3.002l0.005-0.023
				c-0.059,0.196-0.052,0.494-0.092,0.714c-0.023,0.001-0.043-0.021-0.016-0.049c-0.155,0.203-0.445,0.246-0.602,0.448
				c-0.019-0.022-0.019-0.022-0.01-0.072c-0.111,0.224-0.446,0.246-0.547,0.542l-0.044-0.022l-0.08,0.172
				c-0.038-0.044-0.096-0.112-0.016-0.166c-1.573,1.494-2.941,3.293-4.548,4.837l0.019-0.098l-0.233,0.376
				c-0.021-0.022-0.017-0.048-0.011-0.071c-0.46,0.318-0.745,0.84-1.144,1.2c-0.018-0.021,0-0.119-0.075-0.089
				c-0.169,0.395-0.599,0.303-0.505,0.679c-0.023,0.003-0.085-0.041-0.075-0.089c-0.703,0.859-1.51,1.656-2.334,2.404
				c-0.441,0.868-1.367,1.407-1.879,2.258l-0.039-0.046c-0.731,1.028-1.825,1.805-2.708,2.747c-0.397,0.362-0.603,0.669-0.981,1.053
				l-0.062-0.044c-0.439,0.843-1.529,1.167-1.976,2.059l-0.025-0.119c0.007,0.216-0.444,0.366-0.213,0.518l-0.177,0.061
				c-0.203,0.706-0.944,0.71-1.338,1.431l-0.008-0.082c-0.113,0.184-0.258,0.385-0.41,0.452c0.012-0.023-0.01-0.028,0.014-0.076
				c-0.643,0.285-0.962,0.999-1.458,1.482l-0.028-0.142c-0.139,0.336-0.664,0.678-0.929,1.034l-0.021-0.058l-0.102,0.214
				l-0.084-0.077C10.174,38.97,9.862,39.421,9.476,39.824z"/>
		</g>
		<g>
			<path d="M5.484,44.519h0.008C5.497,44.519,5.492,44.519,5.484,44.519z"/>
		</g>
		<g>
			<path d="M45.41,3.252c0.023-0.014,0.045-0.023,0.067-0.033C45.456,3.206,45.431,3.239,45.41,3.252z"/>
		</g>
	</g>
	<g>
		<g>
			<polygon points="19.528,48.209 19.57,48.217 19.547,48.104 			"/>
		</g>
		<g>
			<path d="M19.673,47.764c-0.021-0.002-0.037-0.027-0.06-0.03l0.02,0.365C19.821,48.13,19.548,47.741,19.673,47.764z"/>
		</g>
		<g>
			<path d="M19.742,47.733c0.112-0.021,0.049-0.141,0.034-0.188C19.823,47.639,19.629,47.648,19.742,47.733z"/>
		</g>
		<g>
			<path d="M25.612,41.773c-0.007,0.008-0.013,0.019-0.016,0.027C25.609,41.792,25.614,41.783,25.612,41.773z"/>
		</g>
		<g>
			<path d="M26.847,39.924l-0.056-0.09c-0.16,0.417-0.615,0.611-0.863,0.973l-0.005-0.047c-0.802,0.744-1.393,1.578-2.104,2.4
				c0.003-0.021-0.013-0.047-0.01-0.066c-0.012,0.062-0.007,0.148-0.054,0.186c-0.027-0.007-0.022-0.047-0.017-0.067
				c-0.282,0.044-0.399,0.552-0.592,0.561c-0.034,0.059-0.004,0.129,0.059,0.141c-0.568,0.631-1.188,1.296-1.705,2
				c-0.046,0.013-0.084-0.015-0.118-0.063c-0.327,0.717-0.952,1.187-1.519,1.69c0.031,0.07,0.109-0.001,0.109,0.105
				c0.235-0.109,0.19-0.44,0.438-0.504l0.028,0.069c0.145-0.082-0.1-0.147,0.081-0.201c0.088-0.005,0.052,0.074,0.076,0.057
				c0.221-0.261,0.516-0.469,0.625-0.815c0.162,0.051,0.262-0.255,0.452-0.242c0.021-0.104,0.095-0.156,0.047-0.25
				c0.9-0.786,1.659-1.753,2.529-2.608c0.198-0.611,0.93-0.849,1.34-1.397c0.012,0.004,0.018,0.012,0.021,0.021
				c0.104-0.207,0.309-0.46,0.521-0.62l0.071-0.245c1.304-0.945,2.326-2.219,3.541-3.285c1.349-1.246,2.634-2.232,3.625-3.768
				c0.018,0.021,0.039,0.022,0.015,0.063c0.322-0.406,0.729-0.665,1.03-1.051l0.019,0.021c0.682-1.021,1.796-1.75,2.434-2.755
				c1.019-0.98,2.13-2.13,3.136-3.24l0.038,0.043c0.76-0.934,1.795-1.533,2.574-2.444c0.962-0.775,1.552-2.021,2.553-2.772
				c0.742-0.342,1.024-1.484,1.741-1.785c1.359-0.73,2.172-1.948,3.03-3.183c1.076-0.852,1.752-2.104,2.914-2.81
				c0.297-0.589,1.114-0.75,1.563-1.285l-0.066-0.032c0.329-0.023,0.178-0.609,0.517-0.491l-0.009,0.03
				c0.211,0.021-0.056-0.493,0.139-0.411l-0.041-0.071c0.097-0.132,0.078,0.051,0.188-0.014c0.026-0.04-0.092-0.118,0.01-0.153
				c0.25,0.22,0.227-0.328,0.497-0.073c-0.062,0.062,0.2,0.006,0.116,0.2c0.067-0.013,0.244-0.217,0.115-0.311
				c-0.103-0.135-0.132-0.312-0.34-0.289l0.062,0.108c-0.124-0.047-0.072-0.012-0.15-0.062c-0.162,0.14-0.308,0.033-0.469,0.089
				c0.004,0.001,0.007,0.004,0.01,0.009c0.029,0.178-0.135,0.219-0.208,0.262l-0.071-0.024c-0.137-0.064,0.025,0.368-0.102,0.149
				c-0.264,0.351-0.617,0.7-0.957,1.044c0.017,0.114-0.269,0.256-0.068,0.308c-0.229-0.058-0.521,0.161-0.609,0.262
				c-0.012-0.018-0.021-0.037-0.002-0.047c-0.371-0.003-0.044,0.392-0.445,0.335c0.135,0.189-0.364,0.261-0.271,0.548
				c-0.058-0.014-0.097-0.04-0.118-0.075c-0.313,0.305-0.713,0.59-0.984,0.845c-0.081,0.364-0.605,0.478-0.603,0.865
				c-0.201,0.119-0.541,0.296-0.687,0.597l-0.002-0.045c-0.24,0.263-0.544,0.586-0.593,0.883c-0.262-0.113-0.334,0.032-0.502,0.082
				c-0.08,0.254-0.445,0.567-0.623,0.903c-0.125-0.048-0.175,0.247-0.313,0.136c-0.475,0.96-1.447,1.763-2.396,2.345l0.002-0.02
				c-0.03,0.168,0.008,0.436-0.005,0.626c-0.021-0.001-0.041-0.023-0.019-0.045c-0.116,0.165-0.371,0.171-0.488,0.334
				c-0.02-0.021-0.02-0.021-0.018-0.064c-0.074,0.188-0.371,0.171-0.428,0.424l-0.042-0.025l-0.052,0.146
				c-0.04-0.045-0.098-0.111-0.031-0.15c-1.243,1.162-2.269,2.617-3.533,3.82l0.006-0.085l-0.168,0.31
				c-0.021-0.022-0.019-0.043-0.017-0.064c-0.376,0.234-0.574,0.668-0.89,0.947c-0.019-0.021-0.014-0.107-0.079-0.088
				c-0.104,0.333-0.499,0.206-0.374,0.551c-0.021,0-0.081-0.046-0.077-0.088c-0.534,0.69-1.167,1.313-1.82,1.892
				c-0.301,0.726-1.067,1.106-1.432,1.81l-0.039-0.046c-0.542,0.84-1.433,1.412-2.119,2.158c-0.313,0.279-0.464,0.53-0.761,0.831
				l-0.059-0.045c-0.303,0.703-1.238,0.875-1.54,1.621l-0.036-0.108c0.029,0.192-0.356,0.277-0.135,0.437l-0.149,0.036
				c-0.104,0.608-0.765,0.531-1.038,1.131l-0.016-0.073c-0.082,0.151-0.188,0.314-0.315,0.358c0.006-0.02-0.014-0.026,0.002-0.066
				c-0.544,0.185-0.749,0.787-1.141,1.163l-0.039-0.128c-0.087,0.284-0.52,0.533-0.718,0.821l-0.024-0.055l-0.068,0.18l-0.083-0.078
				C27.376,39.237,27.147,39.604,26.847,39.924z"/>
		</g>
		<g>
			<path d="M23.739,43.519h0.006C23.748,43.519,23.743,43.519,23.739,43.519z"/>
		</g>
		<g>
			<path d="M54.931,11.201c0.02-0.01,0.037-0.018,0.056-0.023C54.967,11.165,54.946,11.191,54.931,11.201z"/>
		</g>
	</g>
	<g>
		<g>
			<polygon points="31.061,28.613 31.097,28.627 31.054,28.534 			"/>
		</g>
		<g>
			<path d="M31.08,28.293c-0.018-0.007-0.036-0.029-0.052-0.037l0.093,0.292C31.274,28.613,30.979,28.25,31.08,28.293z"/>
		</g>
		<g>
			<path d="M31.13,28.284c0.083,0.007,0.009-0.101-0.013-0.141C31.173,28.228,31.023,28.194,31.13,28.284z"/>
		</g>
		<g>
			<path d="M34.484,24.839c-0.003,0.005-0.005,0.011-0.005,0.019C34.487,24.854,34.489,24.848,34.484,24.839z"/>
		</g>
		<g>
			<path d="M35.062,23.644L35,23.561c-0.036,0.296-0.354,0.352-0.473,0.583l-0.014-0.038c-0.473,0.417-0.761,0.947-1.146,1.443
				c-0.001-0.015-0.02-0.038-0.022-0.055c0.005,0.047,0.027,0.117-0.004,0.134c-0.021-0.01-0.025-0.04-0.025-0.055
				c-0.213-0.027-0.198,0.349-0.348,0.315c-0.014,0.04,0.024,0.101,0.076,0.124c-0.312,0.375-0.659,0.767-0.917,1.212
				c-0.034,0.001-0.069-0.028-0.105-0.074c-0.106,0.493-0.499,0.731-0.837,1.007c0.039,0.063,0.085,0.022,0.107,0.106
				c0.163-0.035,0.056-0.306,0.238-0.303l0.037,0.061c0.098-0.034-0.11-0.138,0.021-0.142c0.067,0.014,0.056,0.068,0.071,0.061
				c0.119-0.159,0.307-0.258,0.319-0.51c0.139,0.076,0.152-0.145,0.306-0.094c-0.007-0.078,0.04-0.104-0.018-0.187
				c0.542-0.43,0.934-1.028,1.438-1.517c0.026-0.438,0.552-0.471,0.757-0.816c0.01,0.005,0.018,0.013,0.021,0.021
				c0.039-0.142,0.146-0.296,0.278-0.377l0.003-0.179c0.826-0.468,1.361-1.253,2.092-1.835c0.797-0.694,1.6-1.197,2.054-2.196
				c0.019,0.021,0.035,0.026,0.024,0.054c0.168-0.251,0.435-0.369,0.588-0.608l0.02,0.021c0.319-0.66,1.042-0.997,1.331-1.652
				c0.592-0.555,1.225-1.225,1.779-1.885l0.04,0.042c0.4-0.572,1.087-0.826,1.509-1.378c0.593-0.405,0.791-1.26,1.42-1.64
				c0.512-0.111,0.491-0.951,0.992-1.035c0.915-0.287,1.296-1.074,1.709-1.863c0.668-0.442,0.934-1.284,1.699-1.593
				c0.107-0.399,0.717-0.354,0.958-0.679l-0.164-0.041c0.256,0.053,0.199-0.441,0.199-0.276v0.021c0,0.062-0.045-0.398,0.125-0.294
				l0.003-0.065c0.049-0.081,0.099,0.059,0.173,0.03c0.012-0.026-0.084-0.111-0.011-0.118c0.243,0.226,0.113-0.21,0.382,0.049
				c-0.036,0.035,0.162,0.046,0.136,0.182c0.05,0.004,0.148-0.117,0.026-0.221c-0.109-0.127-0.169-0.274-0.326-0.299l0.072,0.099
				c-0.108-0.064-0.061-0.025-0.132-0.083c-0.1,0.076-0.236-0.038-0.351-0.028c0.003,0.002,0.007,0.003,0.01,0.009
				c0.062,0.146-0.059,0.144-0.108,0.162l-0.062-0.034c-0.12-0.081,0.099,0.295-0.047,0.096c-0.136,0.22-0.339,0.42-0.533,0.619
				c0.038,0.093-0.157,0.145,0.012,0.229c-0.192-0.096-0.376,0.015-0.425,0.074c-0.012-0.015-0.025-0.033-0.01-0.036
				c-0.294-0.081,0.047,0.3-0.28,0.169c0.145,0.177-0.232,0.128-0.099,0.374c-0.047-0.023-0.084-0.053-0.109-0.085
				c-0.182,0.174-0.437,0.312-0.593,0.456c0.012,0.271-0.378,0.248-0.292,0.555c-0.134,0.051-0.364,0.116-0.413,0.323l-0.012-0.035
				c-0.134,0.154-0.304,0.345-0.279,0.568c-0.23-0.145-0.256-0.045-0.379-0.042c-0.01,0.182-0.229,0.353-0.298,0.578
				c-0.108-0.063-0.084,0.158-0.218,0.041c-0.169,0.654-0.766,1.079-1.389,1.337l-0.004-0.016c0.013,0.127,0.099,0.345,0.13,0.491
				c-0.018-0.005-0.037-0.025-0.024-0.038c-0.056,0.105-0.255,0.056-0.313,0.159c-0.02-0.021-0.02-0.021-0.025-0.054
				c-0.02,0.131-0.258,0.056-0.249,0.241l-0.038-0.027l-0.01,0.103c-0.04-0.043-0.101-0.107-0.056-0.124
				c-0.732,0.651-1.229,1.578-1.971,2.256l-0.014-0.063l-0.066,0.207c-0.02-0.021-0.023-0.038-0.027-0.054
				c-0.246,0.104-0.31,0.404-0.498,0.557c-0.021-0.021-0.035-0.087-0.081-0.086c-0.014,0.24-0.35,0.056-0.178,0.354
				c-0.017-0.005-0.074-0.054-0.08-0.085c-0.273,0.43-0.639,0.787-1.032,1.103c-0.081,0.508-0.604,0.646-0.742,1.12l-0.04-0.043
				c-0.248,0.544-0.828,0.807-1.21,1.248c-0.188,0.153-0.253,0.318-0.422,0.493l-0.057-0.048c-0.088,0.489-0.788,0.425-0.868,0.948
				l-0.051-0.093c0.064,0.158-0.222,0.144-0.014,0.315l-0.11-0.004c0.047,0.457-0.49,0.256-0.576,0.671l-0.028-0.062
				c-0.032,0.104-0.082,0.208-0.174,0.217c0.002-0.015-0.015-0.024-0.011-0.053c-0.39,0.029-0.423,0.461-0.65,0.674l-0.06-0.109
				c-0.008,0.206-0.296,0.31-0.39,0.494l-0.031-0.047l-0.015,0.126l-0.083-0.078C35.335,23.216,35.232,23.456,35.062,23.644z"/>
		</g>
		<g>
			<path d="M33.315,25.519h0.005C33.319,25.519,33.316,25.519,33.315,25.519z"/>
		</g>
		<g>
			<path d="M51.074,6.996c0.014-0.004,0.025-0.007,0.039-0.007C51.095,6.975,51.085,6.992,51.074,6.996z"/>
		</g>
	</g>
</g>
</svg>
