<?xml version="1.0" encoding="utf-8"?>
<!-- Generator: Adobe Illustrator 16.0.3, SVG Export Plug-In . SVG Version: 6.00 Build 0)  -->
<!DOCTYPE svg PUBLIC "-//W3C//DTD SVG 1.1//EN" "http://www.w3.org/Graphics/SVG/1.1/DTD/svg11.dtd">
<svg version="1.1" id="Layer_1" xmlns="http://www.w3.org/2000/svg" xmlns:xlink="http://www.w3.org/1999/xlink" x="0px" y="0px"
	 width="148.027px" height="30.921px" viewBox="0 0 148.027 30.921" enable-background="new 0 0 148.027 30.921"
	 xml:space="preserve">
<g>
	<g>
		<g>
			<g>
				<path fill="#FFFFFF" d="M9.007,9.454c0-0.465,0.382-0.844,0.824-0.844h4.297c4.635,0,7.838,3.182,7.838,7.333v0.039
					c0,4.152-3.203,7.376-7.838,7.376H9.832c-0.442,0-0.824-0.38-0.824-0.841V9.454z M14.128,21.82c3.729,0,6.109-2.527,6.109-5.794
					v-0.044c0-3.264-2.381-5.835-6.109-5.835h-3.456V21.82H14.128z"/>
			</g>
		</g>
		<g>
			<g>
				<path fill="#FFFFFF" d="M32.14,22.261l5.983-13.083c0.211-0.465,0.526-0.735,1.052-0.735h0.085c0.505,0,0.844,0.27,1.033,0.735
					l5.982,13.062c0.064,0.149,0.105,0.296,0.105,0.422c0,0.442-0.357,0.802-0.802,0.802c-0.399,0-0.673-0.273-0.819-0.612
					l-1.54-3.394h-8.089l-1.537,3.436c-0.149,0.359-0.422,0.57-0.802,0.57c-0.422,0-0.759-0.337-0.759-0.76
					C32.034,22.58,32.054,22.431,32.14,22.261z M42.569,17.945L39.175,10.4l-3.393,7.545H42.569z"/>
			</g>
		</g>
		<g>
			<g>
				<path fill="#FFFFFF" d="M57.988,9.454c0-0.465,0.38-0.844,0.82-0.844h5.521c1.812,0,3.265,0.547,4.189,1.475
					c0.717,0.716,1.141,1.75,1.141,2.907v0.043c0,2.424-1.645,3.833-3.939,4.275l3.664,4.721c0.169,0.189,0.275,0.377,0.275,0.611
					c0,0.442-0.424,0.822-0.844,0.822c-0.338,0-0.59-0.19-0.78-0.443l-4.149-5.394h-4.233v4.994c0,0.463-0.382,0.843-0.845,0.843
					c-0.44,0-0.82-0.38-0.82-0.843V9.454z M64.182,16.133c2.212,0,3.791-1.138,3.791-3.036v-0.043c0-1.81-1.39-2.907-3.771-2.907
					h-4.549v5.986H64.182z"/>
			</g>
		</g>
		<g>
			<g>
				<path fill="#FFFFFF" d="M81.644,9.369c0-0.441,0.378-0.821,0.821-0.821h0.189c0.356,0,0.61,0.19,0.78,0.442l5.266,7.921
					l5.269-7.921c0.167-0.275,0.442-0.442,0.779-0.442h0.188c0.443,0,0.825,0.38,0.825,0.821v13.253
					c0,0.463-0.382,0.843-0.825,0.843c-0.463,0-0.84-0.4-0.84-0.843v-11l-4.72,6.932c-0.189,0.273-0.4,0.422-0.695,0.422
					c-0.296,0-0.527-0.148-0.718-0.422l-4.698-6.909v10.997c0,0.463-0.356,0.822-0.823,0.822c-0.439,0-0.798-0.359-0.798-0.822
					V9.369z"/>
			</g>
		</g>
		<g>
			<g>
				<path fill="#FFFFFF" d="M107.448,22.261l5.986-13.083c0.208-0.465,0.524-0.735,1.052-0.735h0.084
					c0.506,0,0.844,0.27,1.033,0.735l5.982,13.062c0.064,0.149,0.104,0.296,0.104,0.422c0,0.442-0.358,0.802-0.798,0.802
					c-0.401,0-0.676-0.273-0.822-0.612l-1.537-3.394h-8.092l-1.537,3.436c-0.149,0.359-0.422,0.57-0.803,0.57
					c-0.421,0-0.758-0.337-0.758-0.76C107.343,22.58,107.365,22.431,107.448,22.261z M117.879,17.945l-3.394-7.545l-3.394,7.545
					H117.879z"/>
			</g>
		</g>
		<g>
			<g>
				<path fill="#FFFFFF" d="M132.518,21.587c-0.19-0.125-0.318-0.357-0.318-0.631c0-0.465,0.359-0.822,0.802-0.822
					c0.211,0,0.401,0.085,0.506,0.189c1.389,1.18,2.78,1.75,4.655,1.75c1.983,0,3.288-1.056,3.288-2.508v-0.043
					c0-1.369-0.737-2.147-3.836-2.802c-3.392-0.739-4.952-1.832-4.952-4.255v-0.042c0-2.317,2.046-4.023,4.846-4.023
					c1.94,0,3.353,0.484,4.7,1.454c0.168,0.126,0.358,0.356,0.358,0.672c0,0.443-0.358,0.801-0.799,0.801
					c-0.19,0-0.339-0.042-0.487-0.147c-1.242-0.906-2.445-1.285-3.813-1.285c-1.916,0-3.14,1.053-3.14,2.38v0.043
					c0,1.39,0.759,2.168,4.004,2.865c3.287,0.717,4.803,1.917,4.803,4.172v0.04c0,2.529-2.106,4.173-5.036,4.173
					C135.952,23.569,134.162,22.894,132.518,21.587z"/>
			</g>
		</g>
	</g>
</g>
</svg>
